<?xml version="1.0" encoding="UTF-8"?>
<svg id="Layer_1" xmlns="http://www.w3.org/2000/svg" version="1.1" viewBox="0 0 1920 1920">
  <!-- Generator: Adobe Illustrator 30.3.0, SVG Export Plug-In . SVG Version: 2.1.3 Build 182)  -->
  <defs>
    <style>
      .st0 {
        fill: #b9b8b9;
      }

      .st1 {
        fill: #2c2c2a;
      }

      .st2 {
        fill: #fefefe;
      }
    </style>
  </defs>
  <path class="st2" d="M851.04,554.67c63.7-23.47,151.68-21.16,215.86-.27,3.13-2.21,6.46-4.12,9.94-5.7,23.01-10.38,60.6-6.48,83.45,2.9,37.14,15.23,59.86,40.87,75.48,76.86-8.03.33-43.2,4.38-44.67,13.74,7.67,4.65,28.07-6.42,42.17-6.04,23.69.11,46.47,16.48,62.9,32.06,25.19,23.89,38.8,53.84,52.73,84.8,4.28,9.52,14.5,18.86,17.05,30.17,1.85,8.17,1.02,14.33,1.18,22.52,2.25,15.83,4.58,31.01,4.49,47.09-.29,51.7-14.32,103.27-24.96,153.61-5.29,24.99-1.47,57.61-20.13,77.44-9.15,9.71-22.57,10.36-34.87,10.18-4.18,10.75-26.67,52.15-32.16,52.73-32.62,3.48,18.2-71.47,13.91-81.6-1.72-4.07-2.62-6.39-8.38-10.13l-1.77.45c-5.27,7.35,8.94,10.36-.24,18.99-4.18,1.38-7.63.67-11.64-1.04-6.67-2.83-11.88-8.28-14.42-15.07-6.93-18.97,19.87-55.88,37.83-63.27,4.87-2.01,17.33.49,19.63-4.39-1.87-3.52-1.67-2.59-5.64-5-3.36-28.16-14.93-36.14-27.59-59.57-18.82-34.83-17.1-62.31-6.93-98.4,11.79-2.22,26.16-8.1,34.27-17.08.87-2.88,1.11-1.59-.2-4.02-6.18-1.95-20.02,9.35-26.92,11.84-5.83,2.6-13.12.67-18.93-1.47-52.14-19.22-100.83-59.07-114.73-114.84-1.99-7.96-2.92-18.38-6.43-25.78l-2.25-.1c-1.73,1.84-2.53,3.02-2.37,5.72,1.84,30.2,16.81,60.76,35.08,82.87-22.76,43.94-63.7,103.74-120.42,88.62-6.35-1.69-19.95-6.9-25.52-6.84-2.58,1.81-1.82.62-2.46,3.62,4.33,9.63,39.61,13.83,49.98,13.09,23.76-1.71,41.09-11.33,56.72-28.82-7.11,49.48-13.99,104.45-21.22,154.25-.71,4.9,13,53.43,15.42,63.19,8.57,33.48,15.45,67.38,20.61,101.56,6.35,42.46,9.53,85.33,9.53,128.26-.09,18.7-3.91,45.52-2.26,62.58,2.94,30.58,6.72,62.21,10.32,92.75l12.52,112.98c2.43,22.17,5.24,44.09,7.13,66.33,2.47,29.16-14.39,51.28-42.21,58.54l-.97.15c-18.37.87-28.95-.63-43.8-12.33-19.43-15.31-18.9-34.54-21.32-57.09-1.05-9.79-2.4-20.09-3.72-29.93-6.54-48.79-12.78-97.61-18.69-146.47-2.93-23.3-5.79-46.92-9.04-70.16-1.34-9.6-7.79-22.24-11.65-31.56-4.04-9.78-7.46-19.81-10.23-30.04-3.71-13.44-7.23-27.01-10.55-40.56-10.54-42.95-14.78-87.54-18.92-131.46,9,1.74,72.5,7.05,72.02-5.94l-1.67-1.18c-6.18-.49-23.58,1.92-31.36,2.68-16.13,2.72-36.31-4.64-51.23-4.36-16.34.3-35.2,6.6-52.42,4.19-6.78-.94-28.57-3.1-30.44-2.52l-.59,1.87c6.34,12.1,58.46,7.45,70.86,5.19-5.26,61.99-9.36,102.16-25.95,162.03-3.19,11.45-6.89,22.73-11.09,33.84-3.3,8.59-10.61,25.07-11.87,33.36-2.86,18.75-4.87,38.1-7.5,57.01l-21,159.59c-2.25,17.1-4.3,47.29-7.47,62.27-1.37,6.6-3.99,12.88-7.71,18.51-11.02,16.7-23.72,20.79-41.67,24.78,3.69-.07,7.65-.38,11.2.46l-.52.99c-4.25.88-5.8,1.22-9.88-.25-14.68-5-23.22-3.58-36.32-14.35-24.76-20.36-18.89-45.7-15.75-73.62,1.58-14,3.09-28.3,4.61-42.37l11.66-108.16c3.26-29.01,6.82-58.44,9.31-87.5,1.57-18.33-1.78-38.35-1.87-57.56-.4-43.73,2.5-87.42,8.65-130.72,6.89-47.21,17.01-92.9,28.74-139.07,1.84-7.26,8.52-27.48,8.16-33.37-1.22-20.33-5.48-42.4-8.66-62.71-5-30.9-9.13-61.93-12.38-93.07,13.68,14.48,27.73,23.82,47.79,27.27,15.56,2.68,43.61-.6,56.33-9.83,1.42-3.18,1.38-1.64.41-4.77-5.73-2.71-23.02,5.82-33.37,7.32-11.28,1.65-22.78.55-33.54-3.21-34.15-12-63.88-55.49-79.34-87.15,18.34-21.02,30.43-44.21,35.32-71.85.88-4.96,3.7-14.05-1.13-16.98-.99.27-1.98.53-2.97.8-.95,3.93-2.17,8.32-2.86,12.26-9.33,53.47-48.7,95.42-96.28,118.81-9.38,4.61-21.56,10.35-32.23,11.22-11.7.95-22.89-9.02-32.04-14.62-1.02-.62-2.35,1.05-3.44,1.94-3.09,10.06,26.63,18.91,34.43,20.34,12.69,40.04,10.17,71.85-12.18,108.13-12.33,20.01-18.87,27.09-22.33,50.29-2.63,1.68-3.61,1.95-4.79,4.85,1.4,5.83,13.93,2.17,19.9,5.13,16.72,7.78,34.72,35.75,38.82,51.74,3.53,13.76-24.05,44.25-29.58,20.85-.74-3.12,6.75-7.2,2.26-12.28-5.76-.7-11.67,9.12-10.74,13.64,2.87,13.85,28.23,59.49,23.64,71.84-9.85,26.44-39.57-40.1-42.24-47.27-11.04,0-22.4-.52-31.56-8.01-21.77-17.78-17.95-53.37-23.06-78.33-2.37-11.57-5.64-21.97-7.92-33.03-5.59-27.15-11.33-54.07-14.94-81.53-3.8-29.4-2.73-57.31,2.25-86.39,1.21-7.05-1.36-15.47,1.07-23.07,3.92-12.21,11.79-21.96,17.79-33.15,11.63-23.89,19.52-44.53,36.53-65.61,20.61-25.14,54.2-54.27,89.36-47.79,5.66,1.04,26.72,9.37,29.6,4.34-3.32-9.12-35.2-12.36-43.76-13.11,16.79-40.19,50.15-71.64,92.93-81.28,27.87-6.28,49.02-6.19,73.99,7.6h.03Z"/>
  <path class="st1" d="M956.54,635.19c4.66.83,4.1.59,6.14,3.28.97,10.97.25,33.77.23,45.4l-.06,87.37.14,125.03c.02,21.06.11,42.33-.04,63.4-.03,3.65-.35,5.1-2.18,8.13-7.27-1.44-5.83-9.83-5.8-15.94.11-27.56.34-55.11.3-82.67l-.14-153.39c0-11.63-1.2-74.47,1.4-80.59v-.02Z"/>
  <path class="st1" d="M873.63,679.63c2.41.77,2.23.88,3.85,2.9,4.11,13.4-3.4,43.15-9.3,56.55,6.49,10.11,16.2,18.75,25.57,26.15,5.12,4.04,10,6.93,14,12.03l-.39,1.78c-11.45,1.43-29.12-17.05-36.48-24.61-2.58-2.65-4.37-6.36-7.18-8.79l-2.75,2.53c-12.81,12.97-37.29,30.14-56.38,21.69l-.33-1.88c5.28-4.79,9.74-3.92,16.55-5.19,35.49-6.64,46.54-28.94,49.07-62.9.47-6.32.35-15.57,3.76-20.26h.01Z"/>
  <path class="st1" d="M1041.25,679.05c.95.29,4.55,1.24,4.77,2.64,2.81,17.06.74,36.39,8.66,52.45,7.59,15.41,25.2,25.07,41.45,28.53,5.11,1.09,10.32,1.3,15.35,2.44,1.5,2.93,1.31,1.43.56,4.65-10.96,9.99-41.98-9.44-51.53-17.26l-6.93-6.97c-7.45,10.1-26.35,30.03-38.21,34.46-3.56-.42-2.31.39-4.3-1.79.83-3.95,10.03-10.47,13.49-13.14,9.99-7.71,17.53-15.17,24.63-25.66-6.07-12.69-13.8-47.87-7.94-60.36h0Z"/>
  <path class="st1" d="M1101.46,616.66c2.7.04,4.19.36,5.78,2.4l-.31,2.12c-8.09,11.9-49.64,25.09-64.19,29.91-2.79.58-1.47.7-4.11-.37l-.86-2.08c1.15-5.08,8.56-6.42,13.53-8.27,17.69-6.59,34.56-12.82,50.16-23.71h0Z"/>
  <path class="st1" d="M812.66,616.03c2.13.46,13.66,7.21,16.59,8.68,16.07,8.04,33.28,13.15,49.53,20.66,1.31,3.53.88,2.48-.24,6.86-12.39-2.71-59.53-20.74-67.12-30.81-.43-3.66-.7-1.9,1.24-5.38h0Z"/>
  <path class="st2" d="M945.35,274.61c66.29-7.91,126.42,39.46,134.25,105.76,7.83,66.3-39.61,126.37-105.92,134.12-66.19,7.74-126.14-39.61-133.96-105.79-7.82-66.18,39.45-126.19,105.63-134.09Z"/>
  <path class="st2" d="M1534.78,266.67c4.39-.18,10.77-1.04,14.29,1.02l.8,3.28c-4.63.2-11.49,1.16-14.98-1.43l-.1-2.86h-.01Z"/>
  <path class="st2" d="M1716.73,266.7c6.99-.05,13.32-3.1,14.98,4.23-4.38.21-11.32,1.19-14.62-1.29l-.36-2.94Z"/>
  <path class="st2" d="M1352.38,266.5c6.65-.06,13.6-2.9,15.26,4.28-6.16.29-13.93,2.5-15.26-4.28Z"/>
  <path class="st2" d="M1638.31,266.53c6.36-.2,13.17-2.22,15.33,4.32-6.24.05-14.05,2.72-15.33-4.32Z"/>
  <path class="st2" d="M1042.92,1674.82c3.83-.17,9.08-.67,12.46.86l.32,1.56-2.03,1.67c-4.39.13-9.81.69-13.24-1.77l.36-1.28,2.14-1.03h0Z"/>
  <path class="st2" d="M1586.08,1674.69c4.23-.23,11.32-1.19,14.65.95l.68,3.16c-4.44.11-11,.84-14.63-1.1l-.71-3.01h0Z"/>
  <path class="st2" d="M1466.66,266.69c3.02-.04,1.77-.53,3.95,1.23l-.31,1.33c-4.17,2.83-2.65,1.99-8.53,1.99-2.86-.15-2.85.09-5.1-1.57l.28-1.22c3.48-2.27,5.33-1.78,9.71-1.77h0Z"/>
  <path class="st2" d="M496.81,1674.82c6.5-.4,13.14-2.71,14.95,4.2-4.02.05-11.83.75-14.68-1.47l-.26-2.73h-.01Z"/>
  <path class="st2" d="M641.25,1674.93l1.53,1.89-.64,1.35c-3.92,1.35-8.67.92-12.94.88l-1.27-1.42.23-1.76c3.39-1.39,9.2-.97,13.09-.95h0Z"/>
  <path class="st2" d="M1508.46,1674.72c6.08-.29,14.02-2.55,15.33,4.04-3.54.11-10.95.73-13.99-.66-1.2-.54-.95-1.54-1.34-3.38Z"/>
  <path class="st2" d="M1492.24,266.7c3.53,0,2.18-.66,4.6,1.08l-.33,1.31c-4.18,2.57-2.82,1.78-8.4,1.85-2.92.02-2.89.21-5.46-1.06v-1.36c3.5-2.37,5.08-1.88,9.58-1.83h.01Z"/>
  <path class="st2" d="M235.94,1674.74c6.68-.07,13.02-2.87,14.87,4.28-5.8.15-13.42,2.03-14.87-4.28Z"/>
  <path class="st2" d="M509.02,266.74l1.1.32c.99,2.07.95,1.04.27,3.09-3.24,1.53-7.99.97-11.73.89-2.15-.8-1.39-.1-2.4-1.94l.96-1.21c4.34-1.26,7.32-1.06,11.8-1.14h0Z"/>
  <path class="st2" d="M628.1,266.57c6.5-.17,12.37-2.22,14.89,4.02-4.53.35-9.93,1.35-13.85-.68l-1.04-3.33h0Z"/>
  <path class="st2" d="M601.68,1674.72c6.22-.35,13.41-2.63,14.76,4.16-4.41.07-10.41.77-14.04-1.18l-.72-2.98h0Z"/>
  <path class="st2" d="M1169.64,1675.64c5.3-.91,13.67-2.46,16.7,2.37-5.55,1.68-13.27,2.9-16.7-2.37Z"/>
  <path class="st2" d="M1691.06,1674.72c6.17-.39,13.3-2.68,14.68,4.13-5.71.15-13.37,2.05-14.68-4.13Z"/>
  <path class="st2" d="M656.94,1674.89c3.6-.17,7.99-.6,11.2.83l.36,1.52-2.02,1.7c-5.1.21-6.86.51-11.74-1.25l-.72-1.59.92-1.07,2-.14Z"/>
  <path class="st2" d="M1383.66,266.75c4.1-.37,6.68-1.3,9.27,2.34l-.78,1.35-2.54.42c-4.02.21-8.01.88-10.9-2.35,2.1-2.19.93-1.24,4.95-1.76h0Z"/>
  <path class="st2" d="M1327.88,266.77c3.66-.17,9.67-.85,12.67.76l.27,1.57-1.37,1.79c-3.96-.03-9.03.34-12.51-1.16l-.27-1.63,1.21-1.33h0Z"/>
  <path class="st2" d="M809.71,266.69c6.23-.06,12.05-2.02,14.16,4.03-4.56.27-11.21,1.39-14.6-1.2l.43-2.84h.01Z"/>
  <path class="st2" d="M1197.77,266.69c4.43-.37,9.9-1.54,13.23,1.01v3.25c-4.77.06-9.52.82-13.12-1.9l-.1-2.36h-.01Z"/>
  <path class="st2" d="M1053.15,266.72c1.38-.13,1.13.03,2.59.55l-.66,2.25c-3.85,2.13-6.46,1.56-10.9,1.4-.9-.13-1.96-.71-2.86-1.1l.68-1.66c4.22-1.7,6.65-1.39,11.15-1.44h0Z"/>
  <path class="st2" d="M1456.69,1674.7c6.05-.38,13.34-2.66,14.5,4.1-6.2-.12-13.25,2.54-14.5-4.1Z"/>
  <path class="st2" d="M208.76,267.57c5.94-.56,13.58-2.77,16.4,3.06-6.18.69-12.94,2.55-16.4-3.06Z"/>
  <path class="st2" d="M1614.81,1674.86c3.69-.34,9.98-1.77,12.22,1.35l-.65,2.53c-3.99.07-9.4.49-12.92-1l-.45-1.48,1.8-1.4Z"/>
  <path class="st2" d="M527.93,266.73c3.84-.33,6.74-1.13,9.09,2.45l-.68,1.27-2.67.39c-3.96.2-7.95.85-10.81-2.34,1.73-1.95,1.7-1.33,5.07-1.77h0Z"/>
  <path class="st2" d="M1665.1,1674.75c4.74-.32,9.53-1.28,13.66.64l1.02,3.09c-6.34.52-12.08,2.56-14.68-3.73Z"/>
  <path class="st2" d="M392.6,1674.69c6.22-.32,13.26-2.49,14.91,4.17-4.57.02-10.33.61-14.23-1.43l-.68-2.75h0Z"/>
  <path class="st2" d="M989.52,266.69c6.54-.14,11.91-2.22,14.32,3.94-4.89.33-10.99,1.53-14.55-1.54l.23-2.4Z"/>
  <path class="st2" d="M988.13,1674.75c5.89-.23,13.17-2.34,14.48,3.97-6.13.37-12.99,2.63-14.48-3.97Z"/>
  <path class="st2" d="M679.51,1674.73c3.58-.15,10.35-.81,13.43.58,1.4.64,1.04,1.37,1.57,3.53-4.67,0-10.46.63-14.46-1.38l-.54-2.74h0Z"/>
  <path class="st2" d="M944.63,266.6c3.67-.29,4.84-.96,6.88,2.27-1.62,2.26-.59,1.27-4.45,2-3.74.17-6.95.98-9.27-2.35,2.87-2.29,2.43-1.55,6.84-1.92h0Z"/>
  <path class="st2" d="M665.93,266.74l.9.1.95,1.82-.6,1.52c-3.01,1.3-8.29.78-11.79.7l-1.7-1.47.24-1.56c3.35-1.34,8.25-1.05,12-1.11h0Z"/>
  <path class="st2" d="M1624.23,266.77c.62-.08.12-.09,2.05.46l-.52,2.26c-4.06,2.16-5.97,1.63-10.68,1.41-2.55-.61-1.72.12-2.94-1.73l.62-1.05c4.42-1.72,6.74-1.37,11.47-1.36h0Z"/>
  <path class="st2" d="M885.53,267.34c4.93-.27,10.4-1.11,14.86.59l.94,2.79c-5.97.38-13.28,2.51-15.8-3.39h0Z"/>
  <path class="st2" d="M1196.71,1674.71c6.23-.34,12.65-2.5,14.34,4.17-6,.19-12.98,2.26-14.34-4.17Z"/>
  <path class="st2" d="M210.19,1674.82c4.14-.15,10.71-.99,13.91,1.01l.65,2.9c-5.54.29-13.99,2.49-14.55-3.91h0Z"/>
  <path class="st2" d="M679.7,266.36c5.95.15,12.78-1.58,14.42,4.31-6.27.42-13.12,2.71-14.42-4.31Z"/>
  <path class="st2" d="M261.69,1674.79c6.21-.37,12.25-2.32,15.79,3.04-4.78.91-9.97,1.58-14.54-.09l-1.25-2.94h0Z"/>
  <path class="st2" d="M554.1,266.7c4.16-.25,6.57-.99,9.27,2.59l-.67,1.18-2.77.31c-3.84.26-8.3,1.09-10.5-2.63,2.29-1.85,1.11-1.06,4.68-1.46h-.01Z"/>
  <path class="st2" d="M1248.43,1674.67c4.76-.3,10.29-1.33,14.02,1.21l.08,2.75c-4.06.09-10.13.83-13.42-1.13l-.69-2.82h.01Z"/>
  <path class="st2" d="M756.83,267.37c5.1-.28,9.78-1.17,14.36.54l1.2,3.02c-5.03.22-9.96,1.09-14.4-.71l-1.16-2.85Z"/>
  <path class="st2" d="M1585.34,267.51c6.07-.59,13.17-2.64,16.44,3.07-6.18.49-12.99,2.52-16.44-3.07Z"/>
  <path class="st2" d="M339.49,267.54c4.94-.44,9.73-1.32,14.37.21l1.27,2.73c-5.94.76-12.69,2.92-15.63-2.94h0Z"/>
  <path class="st2" d="M714.86,266.63c2.41-.24,2.24-.3,4.47.62l.43,1.41c-2.93,2.9-1.79,2-6.96,2.44-2.88-.08-3.39.16-5.94-1.21l-.31-1.35c3.81-2.47,3.05-1.67,8.31-1.91h0Z"/>
  <path class="st2" d="M757.41,1675.64c6.16-.79,13.07-3.19,15.96,3.07-6.04.55-12.23,2-15.96-3.07Z"/>
  <path class="st2" d="M378.21,266.69l2.83.56-.92,2.24c-4.54,2.03-5.72,1.61-10.91,1.37-1.92-.26-1.02.13-2.61-1.39l.31-1.64c2.99-1.35,7.85-1.07,11.3-1.14h0Z"/>
  <path class="st2" d="M366.5,1674.78c6.07-.4,13.02-2.62,14.5,4.04-4.16.06-10.71.7-13.96-1.35l-.53-2.69h-.01Z"/>
  <path class="st2" d="M1299.64,1675.61c5.86-.69,13.37-2.95,16.41,2.59-5.99,1.2-12.53,2.47-16.41-2.59Z"/>
  <path class="st2" d="M1222.17,1674.7c6.07-.34,13.24-2.5,14.86,4.07-4.02-.04-11.02.5-14.17-1.29l-.68-2.78h0Z"/>
  <path class="st2" d="M261.41,267.36c5.05-.4,10.02-1.33,14.61.55l.99,2.74c-5.73.3-13.43,2.43-15.6-3.29h0Z"/>
  <path class="st2" d="M1507.58,267.51c5.12-.62,9.62-1.62,14.43.13l1.21,2.86c-6.05.52-12.3,2.47-15.64-3h0Z"/>
  <path class="st2" d="M839.65,266.7c3.77-.29,6.65-1.07,8.88,2.52-1.85,2.14-.77,1.21-4.68,1.73-3.79.12-6.85.84-9.16-2.61,2.52-1.97,1.12-1.16,4.95-1.64h0Z"/>
  <path class="st2" d="M1638.57,1674.76c6.11-.51,13.2-2.74,15.01,3.99-5.95-.08-12.44,1.56-15.01-3.99Z"/>
  <path class="st2" d="M871.17,1674.82c2.26-.22,2.09-.22,4.16.72l-.04,1.49c-4.65,2.78-3.1,1.93-9.28,1.9-2.6-.09-1.71,0-4.22-.9l-.06-1.21c3.34-2.45,5.03-1.97,9.44-2.01h0Z"/>
  <path class="st2" d="M1484.67,1674.87c4.4-.23,7.35-.67,11.65.34l.84,1.46-1.2,2.2c-4.4-.08-8.37.26-12.48-1.15l-.59-1.41,1.77-1.44h0Z"/>
  <path class="st2" d="M1092.12,267.51c5.69-.59,13.65-2.82,16.05,3.03-6.26.45-12.44,2.43-16.05-3.03Z"/>
  <path class="st2" d="M288.26,1674.68c4.47-.33,10.03-1.37,13.49,1.09l.32,2.92c-6.18.19-12.29,2.29-13.81-4.01Z"/>
  <path class="st2" d="M706.34,1674.81c4.13-.27,9.88-1.28,13.18.78l.64,3.11c-5.91.31-12.58,2.48-13.82-3.89Z"/>
  <path class="st2" d="M340.31,1674.78c3.86-.2,11.61-1.4,14.16,1.44l-.44,2.37c-3.99.1-10.16.9-13.29-1.1l-.43-2.72h0Z"/>
  <path class="st2" d="M1689.41,267.52c5.25-.62,9.54-1.56,14.5.1l1.35,2.95c-6.08.56-12.25,2.15-15.85-3.05h0Z"/>
  <path class="st2" d="M1352.47,1674.73c5.89-.35,13.71-2.63,14.55,4.02-4.3-.12-10.31.37-13.86-1.31l-.69-2.71h0Z"/>
  <path class="st2" d="M576.48,266.72c6.34-.42,11.88-2.64,13.24,4.04-4.49.21-9.7,1.08-13.19-1.25l-.05-2.78h0Z"/>
  <path class="st2" d="M1416.36,266.73l1.21.12.96,1.76-.6,1.49c-3.32,1.42-7.81.86-11.55.75l-1.59-1.27.07-1.5c3.33-1.53,7.72-1.25,11.5-1.36h0Z"/>
  <path class="st2" d="M1223.58,266.63c4.26.05,9.92-.51,13.47,1.24l.55,2.7c-4.78.3-10.12,1.3-13.97-1.1l-.06-2.84h.01Z"/>
  <path class="st2" d="M834.77,1675.54c4.68-.51,10.03-1.66,14.1.46l.77,2.83c-4.55.17-9.79.99-13.8-.51l-1.07-2.78h0Z"/>
  <path class="st2" d="M392.04,267.54c5.08-.58,9.53-1.52,14.32.2l1.25,2.76c-5.9.58-12.31,2.42-15.57-2.96h0Z"/>
  <path class="st2" d="M731.25,267.5c5.67-.67,12.76-2.61,15.7,2.66-5.66,1.33-12.41,2.7-15.7-2.66Z"/>
  <path class="st2" d="M1171.15,266.74c6.07-.42,13.09-2.74,14.44,3.89-4.08-.03-10.62.52-14-1.24l-.44-2.64h0Z"/>
  <path class="st2" d="M549,1674.67c5.77-.19,13.25-2.14,14.64,4.09-5.88.02-13,1.86-14.64-4.09Z"/>
  <path class="st2" d="M963.14,266.59c6.08-.3,12.73-2.48,13.91,4.1-6.04.2-12.37,2.17-13.91-4.1Z"/>
  <path class="st2" d="M601.6,267.52c4.88-.91,12.65-2.16,15.59,2.22-5.35,2-12.18,2.98-15.59-2.22Z"/>
  <path class="st2" d="M1249.46,266.55c3.87-.13,11.21-.94,14.01,1.21l.29,2.76c-4.13.11-10.23.77-13.61-1.19l-.68-2.78h-.01Z"/>
  <path class="st2" d="M313.74,267.41c5.88-.4,12.82-2.48,15.12,3.49-5.82.35-12.83,2.4-15.12-3.49Z"/>
  <path class="st2" d="M943.09,1674.84c4.01-.35,6.38-1.08,8.88,2.5l-.78,1.14-3.14.5c-3.6.16-7.66.81-9.62-2.76,2.31-1.86,1.06-1.09,4.66-1.39h0Z"/>
  <path class="st2" d="M859.56,267.47c5.84-.87,12.8-2.42,15.86,3.01-6.25.72-12.06,2.46-15.86-3.01Z"/>
  <path class="st2" d="M1274.14,1675.63c4.54-.97,10.48-1.76,14.75.32l.89,2.72c-6.07.27-11.77,1.88-15.64-3.04h0Z"/>
  <path class="st2" d="M1014.74,267.52c5.92-.75,12.63-2.89,15.41,3.06-6.35.51-11.55,2.38-15.41-3.06h0Z"/>
  <path class="st2" d="M1132.46,266.82l1.15,1.82-.71,1.32c-3.88,1.4-8.12.96-12.34.91-1.08-1.66-.7-.73-.56-3.03,3.15-1.5,8.73-1.04,12.46-1.03h0Z"/>
  <path class="st2" d="M419.81,1674.85c4.24-.21,9.47-1.06,12.81,1.09l.12,2.87c-4.28.15-10.42,1.06-13.29-1.6l.36-2.35h0Z"/>
  <path class="st2" d="M235.08,267.58c5.27-.53,13.07-2.5,15.81,2.34-5.54,1.68-12.38,3.02-15.81-2.34Z"/>
  <path class="st2" d="M1717.3,1674.67c3.73-.13,11.62-.97,14.22,1.2v2.48c-4.25.15-10,1.04-13.46-.66l-.76-3.02h0Z"/>
  <path class="st2" d="M912.08,267.33c4.51-.26,9.84-1.1,13.88.55l1.06,2.85c-5.81.41-12.69,2.52-14.95-3.4h.01Z"/>
  <path class="st2" d="M965.9,1674.85c4.15-.31,8.34-1.06,11.41,1.95-.73,1.65-.3.88-2.42,2.03-3.78.18-8.42.67-11.36-1.74v-1.37l2.37-.87Z"/>
  <path class="st2" d="M886.73,1675.66c5.3-.58,9.61-1.36,14.66.24l1.2,2.69c-6.23.49-12.22,2.43-15.86-2.93h0Z"/>
  <path class="st2" d="M912.85,1675.49c4.92-.46,9.3-1.49,13.69.41l.93,2.95c-5.85.33-12.25,2.34-14.62-3.37h0Z"/>
  <path class="st2" d="M1066.61,267.56c4.64-.52,10.03-1.6,14.23.19l1.03,2.79c-6.05.59-11.91,2.35-15.26-2.98Z"/>
  <path class="st2" d="M418.06,267.59c4.93-.57,9.1-1.57,13.67.01l1.4,2.99c-5.75.74-12.01,2.25-15.07-3Z"/>
  <path class="st2" d="M1535.43,1674.75c4.46-.37,9.89-1.51,13.17,1.01l-.25,2.79c-3.87.05-9.52.81-12.46-1l-.46-2.8h0Z"/>
  <path class="st2" d="M525.85,1674.84c3.87-.21,8.11-.95,11.18.95l-.14,2.16-1.54.6c-4.3.05-8.22.28-12.15-1.49v-1.45l2.66-.76h0Z"/>
  <path class="st2" d="M1559.67,267.46c5.97-.59,12.54-2.48,15.78,3.15-6.32.59-12.08,2.35-15.78-3.15Z"/>
  <path class="st2" d="M287.69,267.54c5.92-.57,12.68-2.71,15.45,3.02-6.11.64-12.21,2.51-15.45-3.02Z"/>
  <path class="st2" d="M443.83,267.54c6.11-.67,12.48-2.68,15.63,3.02-6.35.54-11.82,2.46-15.63-3.02Z"/>
  <path class="st2" d="M1429.99,267.42c4.81-.26,9.86-1.12,14.19.5l1.1,2.81c-5.87.3-12.77,2.36-15.29-3.31h0Z"/>
  <path class="st2" d="M1300.51,267.53c5.01-.53,9.64-1.52,14.29.2l1.24,2.79c-6.45.52-11.35,2.34-15.53-2.98h0Z"/>
  <path class="st2" d="M1144.54,267.55c5.38-.71,12.82-2.89,15.71,2.41-5.42,1.64-12.03,2.26-15.71-2.41Z"/>
  <path class="st2" d="M470.27,267.43c4.79-.29,9.54-1.12,13.91.5l1.26,2.84c-4.55.21-10.03,1.02-14.06-.63l-1.1-2.71h-.01Z"/>
  <path class="st2" d="M1388.92,1674.79c2.26,0,1.65,0,3.89.61l.05,1.49c-3.65,2.4-4.7,1.96-9.34,1.78-2.32.2-2.15.16-4.25-.88l.25-1.15c3.52-2.3,4.95-1.86,9.39-1.85h0Z"/>
  <path class="st2" d="M732.96,1674.84l1.55-.07c3.98-.18,8.95-1.02,11.67,1.47l-.29,2.48c-4.16,0-10.41.62-13.44-1.55l.51-2.33Z"/>
  <path class="st2" d="M1665.69,266.64c6.55-.2,11.28-2.24,13.22,4.23-4.53.19-9.37,1.07-12.85-1.37l-.37-2.86h0Z"/>
  <path class="st2" d="M782.89,267.53c5.7-.74,12.45-2.94,14.96,3.03-6.21.57-11.24,2.28-14.96-3.03Z"/>
  <path class="st2" d="M1560.91,1674.65c5.94-.07,12.19-1.9,14.93,3.64-4.35.25-10.63,1.15-14.23-.77l-.69-2.87h-.01Z"/>
  <path class="st2" d="M1014.03,1675.68c6-.85,12.44-2.63,15.51,2.99-6.13.46-12.02,2.33-15.51-2.99Z"/>
  <path class="st0" d="M1118.98,1675.12l.97-.15c2.96.17,10.61.08,12.41,1.45-3.02,3.38-9.07,4.18-12.97,2.01.13-2.39.51-1.52-.41-3.31h0Z"/>
  <path class="st2" d="M1274.84,267.53c5.03-.56,13.09-2.65,15.6,2.23-5.64,1.65-11.86,2.82-15.6-2.23Z"/>
  <path class="st2" d="M576.72,1674.87c4.35-.39,9.02-1.5,12.37.84l.09,2.94-6.05.03c-2.79.03-4.1.47-6.38-1.12l-.02-2.7h-.01Z"/>
  <path class="st2" d="M1143.61,1675.69c4.42-.65,10.54-.99,14.92.09l1.18,2.07c-4.64,2.1-12.57,2.03-16.1-2.17h0Z"/>
  <path class="st2" d="M1430.51,1675.68c4.73-.61,12.86-1.96,15.57,2.24-5.31,1.69-12.52,3.08-15.57-2.24Z"/>
  <path class="st2" d="M1326.31,1675.7c5.89-.8,11.99-2.95,15.07,2.68-5.87,1.03-11.5,2.4-15.07-2.68Z"/>
  <path class="st2" d="M470.54,1675.54c4.7-.36,9.72-1.27,13.95.48l.68,2.64c-5.61.33-12.62,2.48-14.62-3.12h-.01Z"/>
  <path class="st2" d="M1066.47,1675.7c5.96-.51,12.42-2.62,15.37,2.97-6.05.69-11.85,2.25-15.37-2.97Z"/>
  <path class="st2" d="M1404.2,1675.68c5.59-.68,12.91-3.06,14.98,2.96-6.01.27-11.24,1.93-14.98-2.96Z"/>
  <path class="st2" d="M189.04,1674.92c3.42-.32,8.06-1.61,10.15,1.28l-.61,2.69c-3.89-.07-7.63.29-11.16-1.16l-.23-1.55,1.85-1.27h0Z"/>
  <path class="st0" d="M784.17,1675.53c5.46-.42,11.97-1.38,15.16,3.5-5.77.17-12.77,2.06-15.16-3.5Z"/>
  <path class="st2" d="M444.3,1675.61c4.22-.47,10.15-1.63,13.75.36l.6,2.82c-5.05,0-11.88,1.34-14.35-3.18h0Z"/>
  <path class="st2" d="M313.55,1675.74c5.56-.85,12.46-2.39,16.35,2.03-5.91,1.24-11.68,2-16.35-2.03Z"/>
  <path class="st2" d="M185.97,267.43c5.71-.29,11.33-2.23,13.56,3.36-5.86.24-11.16,2.33-13.56-3.36Z"/>
  <path class="st0" d="M1092.23,1676.67c5.76-1.08,10.87-2.17,15.33,1.98-5.56.51-11.15,2.02-15.33-1.98Z"/>
</svg>