<?xml version="1.0" encoding="UTF-8"?>
<svg id="Layer_1" xmlns="http://www.w3.org/2000/svg" version="1.1" viewBox="0 0 1920 1920">
  <!-- Generator: Adobe Illustrator 30.3.0, SVG Export Plug-In . SVG Version: 2.1.3 Build 182)  -->
  <defs>
    <style>
      .st0 {
        fill: #f7f7f6;
      }

      .st1 {
        fill: #a9a8a9;
      }

      .st2 {
        fill: #838283;
      }

      .st3 {
        fill: #323232;
      }
    </style>
  </defs>
  <path class="st0" d="M734.53,673.62c-39.93,8.3-89.67,3.05-128.44-9.07-32.25-10.09-65.69-30.01-94.32-47.81-15.28-9.65-33.43-13.96-38.43-33.75-3.58-14.16,3.17-23.93,4.28-36.35,7.59-84.76,64.88-151.02,104.52-222.85,9.72-17.61,33.8-18.38,51.48-18.22,41.44-2.1,56.33-4,63.29,42.32,1.93,13-1.15,14.65-10.88,22.43,0,9.75-2.29,20.83-14.23,20.17-6.47-.36-12.68-2.84-19.13-3.42-14.11-.79-26.26,4.24-38.41-6.65-6.5-5.83-7.16-19.05-14.1-21-3.03,1.58-1.86.45-3.45,3.69-.08,10.03,10.96,22.06,18.32,27.94-15.66,42.35-.89,77.27-19.55,117.61-5.61,12.12-26.89,19.65-24.82,29.68,4.25,4.03,15.96-8.55,20.24-11.75,48.18-35.99,106.29-17.81,131.54,35.1,2.12,4.45,4.91,12.79,9.9,13.76,2.94-.94,1.81-.06,3.41-2.84-.13-9.63-13.19-28.97-19.83-35.62-.88-.87-1.78-1.71-2.71-2.52,45.11-21.64,100.13-11.54,138.64,18.92,64.85-20.86,153.24-22.53,217.77-.04,43.05-33.45,86.77-37.69,137.76-19.88-6.98,8.92-26.23,31.94-19.62,42.87l1.91.42c5.01-3.4,11.57-20.43,15.28-26.28,33.78-53.28,96.53-55.48,139.73-12.06,1.4,1.4,3.71,1.33,5.48.95,1.72-2.81,1.26-1.3,1.27-4.74-5.37-7.58-21.06-15.93-24.83-22.76-22.45-40.61-2.62-77.29-20.19-120.5,6.45-6.03,22.67-21.68,16.16-30.97-2.91-1.03-1.47-1.03-4.45.16-8.47,11.54-7.73,23.73-27.15,27.05-5.45.93-14.61-.59-20.57-.56-7.95.04-22.47,6.65-28.92,1.58-5.37-4.22-5.78-12.33-5.97-18.37-3.87-2.93-12.08-9.31-11.69-14.76.83-11.82,4.55-31.88,11.97-41.23,9.48-11.95,28.16-9.13,42.38-8.8,16.58.39,40.26-2.18,53.93,9.87,10.14,10.58,21.39,32.91,29.63,46.67,26,43.42,57.46,86.67,72.45,135.37,4.24,14.66,7.02,30.05,9.24,45.14,1.57,10.6,4.87,20.67,5.62,31.22,1.89,26.45-27.86,35.24-45.62,46.68-53.34,34.38-110,58.72-174.65,57.25-13-.15-28.9-1.06-41.87-3.99-8.71,30.94-20.85,60.82-36.2,89.07-6.17,11.2-12.67,21.9-19.11,32.78-4.92,8.33-18.75,23.86-20.4,32.03-1.65,8.21-3.15,21.78-4.2,30.31-1.88,15.18-3.91,30.34-6.07,45.48-2.45,17.67-4.98,35.33-7.61,52.98-.64,4.26-4.14,24.97-3.68,27.52,4.45,24.68,11.46,49.43,17.14,74.01,9.39,39.38,16.74,79.23,22.02,119.37,4.69,36.32,6.65,72.94,5.85,109.56-.53,22.21-4.76,42.67-1.31,64.7,1.38,8.76,2.09,18.37,3.16,27.24l8.93,75.68,12.07,111.76c1.18,10.59,2.47,21.31,3.8,31.88,2.48,19.81,4.89,36.08-7.48,53.31-1.84,2.56-3.91,4.94-6.2,7.11-3.57,3.36-7.55,6.25-11.83,8.62-24.65,13.74-58.52,3.72-72.02-21.1-2.4-4.5-4.21-9.29-5.39-14.26-1.36-6.01-2.24-18.3-2.98-24.88-1.55-13.1-3.22-26.17-4.99-39.24l-17.05-133.74c-3.23-26.4-6.4-53.21-10.13-79.55-1.31-9.24-7.8-24.45-11.24-33.68-3.64-9.98-6.91-20.07-9.81-30.28-14.09-49.82-25.93-117.87-29.17-170.1l-24.98.07c-5.49,55.16-12.32,109.4-27.3,162.94-3.35,11.97-7.91,28.2-12.71,39.52-12.78,30.16-13.59,60.41-17.82,92.89-6.19,46.73-12.12,93.5-17.78,140.3-3.09,24.83-5.87,50.79-9.64,75.5-1.66,10.89-8.58,23.08-17.38,29.58-15.56,11.49-25.09,13-43.71,11.43l-2.73-.55c-23.97-6.25-42.91-27.92-40.28-53.71,2.19-21.49,4.79-42.98,7.15-64.47l14.8-132.39c2.84-24.43,6.3-49.81,8.65-74.15,1.8-18.68-2.33-43.18-2.67-63.44-.29-39.89,2.39-79.74,8.02-119.23,6.01-43.07,14.21-83.62,24.62-125.71,2.07-8.34,13.13-49.73,12.59-54.23-6.17-50.78-16.47-110.21-20.69-160.57-39.17-46.31-58.39-93.99-76.61-150.39v-.03Z"/>
  <path class="st3" d="M746.59,638.89c18.6,5.28,40.6,26.8,44.99,44.84,12.73,52.36,58.86,61.37,106.1,59.64,4.77-.17,10.32-1.14,14.24,2.42,0,3.9.42,2.02-1.82,5.68-7.79.58-15.6.87-23.41.88-32.02-.15-79-10.09-93.46-42.32-6.37-14.21-8.8-27.51-18.22-40.77-8.24-11.6-20.64-15.63-29.1-24.14-.98-3.44-.75-2.23.68-6.23Z"/>
  <path class="st3" d="M1171.91,640.06c3.1,1.25,3.31,2.16,4.36,4.41-2.32,4.59-19.79,11.8-28.68,23.33-15.32,19.89-14.8,44.06-32.92,59.81-27.6,24.01-67.17,25.26-101.22,23.88l-3.17-1.04c-2.38-2.64-1.81-1.16-2.05-4.48,1.28-1.46,2.25-2.62,4.64-2.58,5.93.1,12.58.11,18.45.27,17.1.48,45.32-3.27,60.68-11.08,50.67-25.74,18.48-63.03,79.9-92.53h.01Z"/>
  <path class="st3" d="M1332.56,578.12c4.13.76,2.77-.29,4.83,2.33-.3,7.95-19.73,21.77-26.43,25.33-27.64,14.68-59.68,14.58-89.45,7.03-3.34-1.42-4.68-2.09-4.98-5.68l1.46-1.5c7.42-2.38,26.67,4.04,36.08,4.14,35.43.38,53.59-8.77,78.48-31.67v.02Z"/>
  <path class="st3" d="M584.6,576.88c4.81.62,9.43,5.31,12.79,8.57,26.72,25.87,64.86,28.83,99.2,18.84,2.45-.71,4.26.29,6.19,1.57.69,3.65.78,1.82-.86,5.62-22.54,7.65-46.85,8.46-69.85,2.32-16.3-4.5-30.62-12.69-43.13-24.2-4.92-4.53-6.09-6.52-4.34-12.73h0Z"/>
  <path class="st3" d="M959,645.26c1.46.73,5.09,2.1,5.05,3.96-.3,13.21,3.13,73.95-1.42,81.91-3.62-.86-3.67-.28-6.01-2.46-2.16-18.41.29-58.41.02-78.58-.02-1.37,1.57-3.68,2.35-4.82h.01Z"/>
  <path class="st3" d="M1078.86,701.26c4.11-.22,6.93-.52,10.16,2.48,1.65,8.46-9.83,13.03-16.12,15.52-.87.04-1.73.08-2.61.1-4.65.12-5.31.08-8.41-2.83-.83-8.44,10.35-13.02,16.98-15.27h0Z"/>
  <path class="st3" d="M833.98,701.18c9.15-.4,31.59,6.33,22.07,18.36-9.31.54-29.98-5.4-22.07-18.36Z"/>
  <path class="st0" d="M947.57,274.54c66.1-7.44,125.73,40.1,133.18,106.2,7.45,66.1-40.09,125.73-106.18,133.19-66.12,7.46-125.76-40.09-133.21-106.2-7.46-66.11,40.1-125.75,106.21-133.2h0Z"/>
  <path class="st1" d="M989.93,267.55c6.58-.2,13.81-3.07,15.52,4.24-4.71.15-10.98.93-14.85-1.36l-.67-2.89h0Z"/>
  <path class="st1" d="M1664.93,267.51c6.23-.33,13.82-2.56,15.41,4.22-3.68.17-10.88.93-14.01-.62-1.36-.68-.98-1.43-1.41-3.6h.01Z"/>
  <path class="st1" d="M731.01,267.54c5.22-.33,9.65-1.26,14.29.7l1.37,3.37c-6.27.41-13.19,2.45-15.66-4.07Z"/>
  <path class="st1" d="M1611.83,268.5c6.03-.79,14.39-3.3,17.34,2.87-6.21.62-13.56,2.61-17.34-2.87Z"/>
  <path class="st1" d="M1326.38,268.45c3.82-.73,10.61-1.61,14.36-.33,2.12.72,1.3.55,2.62,3.39-6.36.48-13.08,2.32-16.98-3.06h0Z"/>
  <path class="st1" d="M653.54,267.49c6.11,0,13.16-1.74,15.56,4.17-3.7.28-11.18,1.31-14.24-.45-1.29-.74-.94-1.61-1.31-3.72h-.01Z"/>
  <path class="st1" d="M1483.88,267.57c6.24-.3,12.8-2.3,15.04,4.12-4.36.23-11.48,1.3-14.72-1.27l-.32-2.84h0Z"/>
  <path class="st1" d="M712.06,267.63c3.73-.31,5.67-.96,7.73,2.61-1.98,2.17-.75,1.35-4.24,1.76-4.06.15-7.34,1.01-9.88-2.56,2.4-2.19,2.27-1.47,6.39-1.81Z"/>
  <path class="st1" d="M580.55,267.67c4.2-.37,7.4-1.15,10.14,2.5l-.58,1.26-3.01.47c-4.01.27-8.37,1.1-10.61-2.83,1.59-1.81.66-1.02,4.05-1.4h.01Z"/>
  <path class="st1" d="M863.04,267.64c4.18-.13,9.11-.7,12.9.65l.56,1.69-1.14,1.79c-4.62.06-8.49.44-12.92-.77l-.76-1.41,1.36-1.95Z"/>
  <path class="st1" d="M1252.42,267.66c3.87-.12,8.41-.64,11.94.62l.5,1.72-1.37,1.81c-3.99.04-9.64.33-13.17-1.3l-.29-1.42,2.39-1.43h0Z"/>
  <path class="st1" d="M1146.19,267.43c4.36.03,10.58-.47,14.34,1.38l.94,2.93c-6.17.33-14.09,2.61-15.28-4.31h0Z"/>
  <path class="st1" d="M1197.26,268.52c6.01-.76,13.67-3.1,16.6,3-5.98.56-13.32,2.52-16.6-3Z"/>
  <path class="st1" d="M239.41,267.61c4.29-.05,9.92-.79,12.85,1.91l-.23,2.36c-4.27.07-9.93.58-13.78-.75l-.49-1.52,1.65-2Z"/>
  <path class="st1" d="M912.66,267.25c4.72.03,10.98-.41,15.04,1.55l.64,2.81c-6.34.23-13.67,2.28-15.68-4.37h0Z"/>
  <path class="st1" d="M499.21,267.62c6.46-.1,12.17-2.11,14.35,4.17-4.69.27-11.12,1.38-14.61-1.33l.27-2.84h-.01Z"/>
  <path class="st1" d="M1275.99,267.58c6.65,0,13.41-2.86,15.07,4.1-5.95.27-13.88,2.46-15.07-4.1Z"/>
  <path class="st1" d="M430.8,267.55c2.33,0,2.22-.13,4.15,1.13l-.32,1.46c-4.09,2.46-5.12,2-10.17,1.75-2.31.1-2.15.08-4.21-1.02l.34-1.24c3.96-2.34,5.39-1.96,10.21-2.07h0Z"/>
  <path class="st1" d="M1570.27,267.61c2.75-.21,2.67-.38,5.13.73l.46,1.53c-2.58,2.54-1.73,1.73-6.37,2.08-3.25.08-4.18.35-7.1-1.18l-.22-1.53c3.6-2.24,3.15-1.48,8.09-1.64h.01Z"/>
  <path class="st1" d="M941.69,267.66c4.02-.33,8.76-1.11,11.24,2.49l-.51,1.02-2.58.61c-4.43.26-7.71.84-11.2-1.99l.15-1.44,2.9-.69h0Z"/>
  <path class="st1" d="M1352.25,268.43c5.4-.68,10.03-1.77,15.07.15l1.22,2.9c-6.03.85-12.52,2.03-16.28-3.06h0Z"/>
  <path class="st1" d="M1432.63,267.6c6.46-.2,12.63-2.38,14.46,4.13-4.58.24-10.89,1.25-14.38-1.29l-.07-2.83h-.01Z"/>
  <path class="st1" d="M1457.77,267.51c6.05-.01,12.95-1.86,14.9,4.15-5.89.34-14.14,2.65-14.9-4.15Z"/>
  <path class="st1" d="M1690.96,268.29c4.73-.52,10.48-1.7,14.67.4l.89,2.98c-4.96.18-9.96.96-14.41-.72l-1.15-2.66Z"/>
  <path class="st1" d="M1102.31,267.58c2.85-.15,2.79-.34,5.32.85l.36,1.38c-3.09,2.56-2.31,1.74-7.27,2.02-3.05.09-3.67.41-6.31-1.08l.02-1.5c3.53-2.19,3.08-1.46,7.88-1.67h0Z"/>
  <path class="st1" d="M549.32,268.47c5.69-1.07,13.54-2.92,16.22,3-6.24.37-12.64,2.38-16.22-3Z"/>
  <path class="st1" d="M1508.37,268.47c5.63-.74,12.89-2.76,16.16,2.45-5.47,1.61-12.79,2.75-16.16-2.45Z"/>
  <path class="st1" d="M393.01,268.49c6.05-.7,13.23-2.96,16.48,2.8-6.15.74-12.7,2.64-16.48-2.8Z"/>
  <path class="st1" d="M1379.16,268.53c6.15-.83,12.9-3.25,15.81,2.96-5.88.46-12.82,2.51-15.81-2.96Z"/>
  <path class="st1" d="M626.73,268.5c5.96-.75,13.38-3.15,16.2,2.88-6.42.74-12.01,2.48-16.2-2.88Z"/>
  <path class="st1" d="M445.3,268.45c5.8-1.05,13.33-2.83,16.2,3.05-6.25.42-12.53,2.32-16.2-3.05Z"/>
  <path class="st1" d="M835.11,268.34c5.95-.52,13.46-2.77,15.87,3.31-5.73.3-13.58,2.38-15.87-3.31Z"/>
  <path class="st1" d="M289.28,268.27c6.2-.66,12.88-2.99,15.3,3.5-5.99.19-12.77,2.19-15.3-3.5Z"/>
  <path class="st1" d="M782.74,268.5c6.11-.75,12.96-2.71,16.21,3.01-6.1.59-12.79,2.54-16.21-3.01Z"/>
  <path class="st1" d="M1171.23,268.45c5.64-.57,9.81-1.42,15.15.27l1.22,2.72c-6.19.52-12.71,2.46-16.37-2.99Z"/>
  <path class="st1" d="M1404.96,268.5c5.42-.77,9.82-1.89,14.9.03l1.19,2.72c-5.94.83-12.28,2.17-16.09-2.75Z"/>
  <path class="st1" d="M678.52,268.41c5.6-.71,9.42-1.52,14.72.29l1.36,2.82c-6.3.69-12.17,2.15-16.09-3.11h.01Z"/>
  <path class="st1" d="M341.08,268.49c5.29-.62,9.73-1.62,14.71.04l1.22,2.61c-6.02.87-12.46,2.9-15.92-2.65h0Z"/>
  <path class="st1" d="M1535.12,268.43c5.94-.81,12.89-3.14,15.64,3.1-6.23.67-11.94,2.21-15.64-3.1Z"/>
  <path class="st1" d="M628.59,1672.77c5.15-.35,10.32-1.27,15,.47l1.22,2.85c-5.98.22-13.43,2.25-16.22-3.32Z"/>
  <path class="st1" d="M1119.39,268.46c4.9-.52,10.23-1.62,14.67.33l1.02,2.85c-4.41.17-10.98.95-14.83-.77l-.86-2.41h0Z"/>
  <path class="st1" d="M808.54,268.46c5.56-.56,9.72-1.38,14.96.38l1.29,2.6c-6.04.55-12.87,2.55-16.25-2.97h0Z"/>
  <path class="st1" d="M1012.25,1672.72c5.1-.39,10.1-1.34,14.76.52l1.1,2.8c-5.81.3-13.19,2.26-15.85-3.32h-.01Z"/>
  <path class="st1" d="M263.22,268.38c6.07-.43,13.19-2.54,15.95,3.35-4.63.2-10.83.97-14.92-.72l-1.03-2.63Z"/>
  <path class="st1" d="M681.07,1672.78c5.82-.44,14.26-2.67,16.38,3.42-5.58.09-13.77,1.76-16.38-3.42Z"/>
  <path class="st1" d="M367.38,268.54c5.92-.71,13.02-2.97,15.85,2.95-5.96.63-12.51,2.41-15.85-2.95Z"/>
  <path class="st1" d="M1223.39,268.44c5.55-.66,9.3-1.44,14.56.28l1.31,2.75c-6.18.5-12.35,2.44-15.87-3.04h0Z"/>
  <path class="st1" d="M1067.63,268.36c4.55-.45,10.57-1.55,14.55.35l.76,2.8c-5.64.32-13.1,2.46-15.31-3.16h0Z"/>
  <path class="st1" d="M1587.09,268.44c5.47-.94,13.18-2.62,15.83,2.9-6.16.63-12.23,2.57-15.83-2.9Z"/>
  <path class="st1" d="M887.01,268.51c5.87-.66,13.12-2.77,16.13,2.99-5.97.43-12.89,2.4-16.13-2.99Z"/>
  <path class="st1" d="M393.47,1672.77c5.19-.37,10.1-1.27,14.84.46l1.18,2.79c-4.82.2-10.83.97-15.13-.71l-.88-2.54h0Z"/>
  <path class="st1" d="M1143.62,1672.83c4.72-.34,11.03-1.33,15.1.66l.86,2.62c-4.37.16-11.68.94-15.23-.89l-.73-2.39Z"/>
  <path class="st1" d="M419.65,1672.75c4.79-.38,10.69-1.31,14.99.48l1.09,2.82c-5.86.13-13.45,2.13-16.08-3.3h0Z"/>
  <path class="st1" d="M523.88,268.34c5.47-.54,13.43-2.81,15.18,3.22-5.72.37-12.91,2.48-15.18-3.22Z"/>
  <path class="st1" d="M1456.59,1672.75c5.22-.37,10.05-1.25,14.85.49l1.2,2.83c-5.39.25-13.83,2.09-16.05-3.32h0Z"/>
  <path class="st1" d="M497.31,1672.89c6.34-.67,13.25-2.73,16.83,2.98-6.8.46-11.75,2.03-16.83-2.98h0Z"/>
  <path class="st1" d="M1196.32,1672.77c5.69-.38,13.61-2.47,15.75,3.34-5.55.26-13.78,2.29-15.75-3.34Z"/>
  <path class="st1" d="M760.26,1672.78c6.08-.43,13.35-2.58,15.84,3.57-5.21.09-14.12,1.74-15.84-3.57Z"/>
  <path class="st1" d="M1169.75,1672.9c4.86-.41,10.86-1.15,15.45.19l1.02,1.91c-5.26,1.84-13.17,3.07-16.47-2.1Z"/>
  <path class="st1" d="M757.45,268.35c4.76-.35,9.99-1.23,14.31.56l1.12,2.74c-5.26.32-13.79,2.33-15.43-3.3Z"/>
  <path class="st1" d="M1041.55,268.52c5.17-.56,12.85-2.66,15.53,2.22-5.15,1.78-12.51,3.05-15.53-2.22Z"/>
  <path class="st1" d="M289.66,1672.72c4.6-.46,10.41-1.56,14.46.5l.72,2.65c-5.55.25-12.86,2.23-15.18-3.15Z"/>
  <path class="st1" d="M315.29,268.49c5.33-.54,13.04-2.48,16.09,2.42-5.44,1.57-12.59,2.62-16.09-2.42Z"/>
  <path class="st1" d="M1301.57,268.47c6.15-.81,12.55-2.63,15.94,3.03-6.08.46-12.43,2.32-15.94-3.03Z"/>
  <path class="st1" d="M1562.07,1672.77c4.52-.36,10.38-1.37,14.37.43l.88,2.78c-4.42.21-10.58.98-14.41-.77l-.84-2.45h0Z"/>
  <path class="st1" d="M1379.23,1672.87c6.06-.74,12.74-2.65,15.92,3.01-6.03.46-12.39,2.27-15.92-3.01Z"/>
  <path class="st1" d="M1352.64,1672.89c5.48-.55,13.16-2.15,16.53,2.35-5.64,1.54-12.75,2.67-16.53-2.35Z"/>
  <path class="st1" d="M1431.13,1672.88c5.4-.72,12.56-2.21,15.84,2.44-5.4,1.83-12.37,2.58-15.84-2.44Z"/>
  <path class="st1" d="M576.9,1672.74c4.65-.4,10.09-1.4,14.21.46l.94,2.8c-4.66.17-9.79.94-13.97-.64l-1.18-2.63h0Z"/>
  <path class="st1" d="M1248.72,1672.88c5.82-.51,13-2.62,15.79,2.96-6.04.58-12.33,2.4-15.79-2.96Z"/>
  <path class="st1" d="M864.84,1672.76c5.68-.45,13.6-2.65,15.42,3.4-5.58.11-13.06,1.9-15.42-3.4Z"/>
  <path class="st1" d="M601.43,268.5c5.37-.54,12.82-2.22,15.9,2.46-5.5,1.8-12.37,2.64-15.9-2.46Z"/>
  <path class="st1" d="M916.64,1672.89c6.18-.55,12.87-2.49,16.43,2.95-6.24.59-12.52,2.23-16.43-2.95Z"/>
  <path class="st1" d="M211.71,268.44c4.32-.32,10.83-1.38,14.39.68l.64,2.38c-4.35.32-10.46,1.31-14.27-.54l-.76-2.53h0Z"/>
  <path class="st1" d="M1300.47,1672.88c5.03-.5,9.59-1.39,14.33.22l1.23,2.64c-5.93.53-12.34,2.51-15.56-2.86h0Z"/>
  <path class="st1" d="M1065.41,1672.75c5.67-.37,13.27-2.45,15.39,3.35-4.68.15-10.08.89-14.29-.64l-1.11-2.71h.01Z"/>
  <path class="st2" d="M798.95,1671.9l2.73.55-1.07,2.39c-3.4,2.6-10.51,2.12-13.75-.89,2.24-2.03,8.59-1.82,12.09-2.05Z"/>
  <path class="st1" d="M263.63,1672.87c5.93-.64,12.33-2.47,15.61,3.03-5.89.48-12.52,2.36-15.61-3.03Z"/>
  <path class="st1" d="M837.8,1672.81c4.85-.26,10.46-1.13,14.84.44l.87,2.68c-5.41.24-13.65,2.19-15.71-3.12Z"/>
  <path class="st1" d="M1639.26,268.29c4.88-.38,9.46-1.21,13.93.59l1.12,2.73c-5.66.26-12.74,2.22-15.06-3.32h.01Z"/>
  <path class="st1" d="M1015.89,268.49c4.73-.66,10.02-1.92,14.28.24l.85,2.73c-6.25.37-10.78,1.89-15.13-2.97Z"/>
  <path class="st1" d="M1613.03,1672.75c2.18-.17,4.38-.31,6.56-.42,3.47-.18,6.46-.58,8.83,1.56l-.63,1.87c-5.45.27-12.48,2.28-14.77-3h.01Z"/>
  <path class="st1" d="M367.61,1672.89c5.73-.67,12.54-2.64,15.64,2.65-5.89.95-11.91,2.56-15.64-2.65Z"/>
  <path class="st1" d="M1509.54,1672.9c4.91-.79,13.04-2.09,16.12,2.14-5.44,1.33-12.94,3.08-16.12-2.14Z"/>
  <path class="st1" d="M603.18,1672.76c5.05-.41,9.59-1.36,14.13.46l.94,2.69c-5.7.31-12.53,2.31-15.07-3.15h0Z"/>
  <path class="st1" d="M986.67,1672.75c4.58-.29,9.78-1.18,13.86.52l1.09,2.79c-5.67.27-12.6,2.25-14.94-3.32h-.01Z"/>
  <path class="st1" d="M523.96,1672.83c4.87-.29,10.22-1.17,14.64.42l.9,2.67c-4.28.17-10.78.94-14.54-.62l-1-2.48h0Z"/>
  <path class="st1" d="M1587.21,1672.91c5.04-.48,9.71-1.35,14.47.22l1.23,2.61c-5.57.68-12.62,2.18-15.7-2.82h0Z"/>
  <path class="st1" d="M1717.21,268.48c5.32-.8,12.06-2.65,14.96,2.48-5.74,1.41-11.44,2.84-14.96-2.48Z"/>
  <path class="st1" d="M1038.53,1672.91c5.76-.52,12.44-2.28,15.86,2.68-5.48,1.18-12.73,2.39-15.86-2.68Z"/>
  <path class="st1" d="M187.17,268.31c5.97-.75,11.99-2.89,14.26,3.44-5.38.21-11.93,1.89-14.26-3.44Z"/>
  <path class="st1" d="M210.67,1672.79c4.9-.31,10.24-1.21,14.68.52l1.03,2.71c-5.75.21-12.43,1.83-15.71-3.23Z"/>
  <path class="st1" d="M472.21,268.53c5.93-.63,12.3-2.4,15.44,2.98-5.73.49-12.51,2.44-15.44-2.98Z"/>
  <path class="st1" d="M237.1,1672.8c4.66-.43,10.45-1.45,14.63.41l.87,2.74c-5.26.1-12.63,1.57-15.5-3.15Z"/>
  <path class="st1" d="M1665.49,1672.95c5.94-.61,13.1-2.95,16.18,2.57-2.83.41-5.69.61-8.55.59-4.34,0-5.06-.51-7.63-3.16h0Z"/>
  <path class="st1" d="M1275.19,1672.9c5.34-.53,12.84-2.58,15.55,2.52-5.75.75-12.55,2.95-15.55-2.52Z"/>
  <path class="st1" d="M707.52,1672.91c5.53-.48,13.27-2.59,16.02,2.63-5.86.7-12.55,2.45-16.02-2.63Z"/>
  <path class="st1" d="M550.96,1672.76c4.63-.34,10.3-1.31,14.36.73l.82,2.61c-5.29.11-13.02,1.86-15.18-3.34Z"/>
  <path class="st1" d="M891.36,1672.77c5.87-.37,12.3-2.25,15.01,3.29-4.51.19-10.06,1-14.03-.67l-.98-2.62Z"/>
  <path class="st1" d="M472.25,1672.87c5.93-.66,12.24-2.7,15.18,3.02-6.04.55-11.4,2.01-15.18-3.02Z"/>
  <path class="st1" d="M733.99,1672.91c5.58-.59,12.56-2.51,15.69,2.53-5.39,1.08-12.47,2.27-15.69-2.53Z"/>
  <path class="st1" d="M1639.82,1672.88c5.65-.65,12.84-2.55,15.58,2.95-5.93.29-11.92,1.96-15.58-2.95Z"/>
  <path class="st1" d="M1692.04,1672.88c5.31-.57,12.52-2.43,15.58,2.43-5.62,1.43-11.7,2.19-15.58-2.43Z"/>
  <path class="st1" d="M446.03,1672.78c4.55-.3,10.42-1.2,14.51.46l.48,2.36c-5.32.3-13.09,2.5-14.99-2.82h0Z"/>
  <path class="st1" d="M341.11,1672.9c5.24-.83,12.4-2.24,15.56,2.36-5.74,1.43-11.35,2.09-15.56-2.36Z"/>
  <path class="st1" d="M1223.03,1672.82c4.73-.32,9.6-1.2,13.89.45l1.12,2.73c-5.36.14-12.68,1.89-15.02-3.18h.01Z"/>
  <path class="st1" d="M1405.27,1672.91c5.18-.54,12.21-2.19,15.35,2.18-5.2,1.53-12.36,2.91-15.35-2.18Z"/>
  <path class="st1" d="M1535.62,1672.91c5.43-.71,12.1-2.61,15.31,2.15-5.76.98-11.94,3.07-15.31-2.15Z"/>
  <path class="st1" d="M961.02,1672.9c5.75-.67,11.78-2.41,14.7,2.95-5.57.63-11.89,2.16-14.7-2.95Z"/>
  <path class="st1" d="M315.43,1672.89c4.9-.57,13.22-2.09,16.02,2.24-6.03.82-12.18,2.79-16.02-2.24Z"/>
  <path class="st1" d="M1483.14,1672.94c5.89-.62,11.97-2.36,15.12,2.93-5.88.39-11.48,2.07-15.12-2.93Z"/>
  <path class="st1" d="M1327.43,1672.83c4.74-.36,9.26-1.22,13.56.51l1.11,2.67c-4.81.11-12.84,1.74-14.66-3.18h-.01Z"/>
  <path class="st1" d="M655.79,1672.82c4.54-.32,9.71-1.22,13.73.55l.88,2.56c-5.45.07-12.17,1.88-14.6-3.11h-.01Z"/>
  <path class="st1" d="M1717.92,1672.78c4.24-.27,9.68-1.12,13.4.44l.51,2.54c-5.6.24-11.54,2.29-13.9-2.98h-.01Z"/>
  <path class="st1" d="M187.26,1672.87c4.27-.41,9.01-1.26,12.79.38l.53,2.59c-4.36.09-8.34.58-12.4-.81l-.93-2.16h0Z"/>
</svg>