<?xml version="1.0" encoding="UTF-8"?>
<svg id="Layer_1" xmlns="http://www.w3.org/2000/svg" version="1.1" viewBox="0 0 1920 1920">
  <!-- Generator: Adobe Illustrator 30.3.0, SVG Export Plug-In . SVG Version: 2.1.3 Build 182)  -->
  <defs>
    <style>
      .st0 {
        fill: #fdfefd;
      }

      .st1 {
        fill: #2d2d2c;
      }

      .st2 {
        fill: #adacaf;
      }

      .st3 {
        fill: #c4c3c4;
      }
    </style>
  </defs>
  <path class="st0" d="M734.33,685.27c20.36.17,38.47-2.01,54.73-16.29,1.45-1.27,2.29-2.49,3.1-4.24l-.26-2.21c-2.89-.97-3.86-.73-7.08.87-7.7,3.83-16.56,9.72-24.76,12.25-8.23,2.53-21.35,1.14-29.78,2.05-7.62.82-14.01,2.25-21.96,2.68-36.84,1.97-73.62-2.93-108.66-14.55-33.23-11.02-62.99-29.18-91.93-48.44-16.4-10.91-35.87-14.42-36.95-39.46-.31-7.23,3.38-13.99,4.63-20.96,3.31-23.19,5.87-44.39,13.44-66.91,4.08-12.12,9.04-23.93,14.83-35.34,22.39-43.89,53.3-88.72,77.64-131.98,14.48-20.09,42.87-15.68,64.06-16.56,35.75-1.48,42.28,2.67,48,38.03,3.56,22.01-5.36,18.54-7.21,25.76-7.57,29.45-13.99,19.08-39.34,18.06-9.52-.37-25.97.55-35.22-5.59-7.16-4.9-6.19-19.11-16.52-21.93l-1.64.76c-2.06,9.3,11.82,25.5,18.64,30.98-20.02,38.67,10.83,105.91-34.21,135.2-2.86,1.86-8.49,6.15-8.93,9.72,1.04,2.97.13,1.92,2.56,3.46,5.14-.57,15.49-11.89,20.48-15.38,43.33-30.34,103.49-14.69,123.99,34.62,2.21,5.32,6.72,20.3,12.8,20.52,6.8-9.35-12.46-36.42-18.49-44.16,33.86-13.19,77.23-15.67,110.96-.94,11.03,4.89,21.26,11.4,30.36,19.31,65.77-20.36,150.87-23.2,216.06.19,13-10.41,23.16-17.54,39.3-22.65,32.22-10.22,71.27-9.01,102.56,4.03-7.01,8.95-19.67,28.83-20.69,41.38-.07.97,1.16,1.39,2.26,2.1,2.3-.27,2.83.17,4.17-1.89,4.35-6.65,6.91-15.34,10.53-22.52,12.39-24.06,35.66-40.64,62.46-44.5,22.34-3.21,41.51,2.25,59.42,15.91,6.26,4.78,12.64,10.84,19.31,14.71,2.88-.81,1.51-.18,3.78-2.94-.68-5.49-18.04-15.32-22.32-21.07-27.77-37.29-4.25-84.03-21.02-125.34,6.24-6.38,21.09-21.93,15.67-31.02-7.26.36-10.98,17.57-18.35,22.17-11.86,7.41-21.05,4.02-34.07,4.44-15.94,1.52-33.75,11.2-35.24-13.98l-.11-1.85c-.02-.38-.04-.77-.06-1.15-5.97-5.37-7.77-7.84-10.92-15.26,2.91-13.18,5.4-39.33,16.8-44.84,14.51-7.01,61.31-4.68,78.3-.81,6.42,1.39,12.5,5.73,16.36,11.07,9.53,13.18,17.11,27.69,25.36,41.89,28.4,48.94,64.43,96.41,76.33,152.72,2.76,13.07,3.63,26.59,5.96,39.38,3.18,17.45,10.18,32.55-5.99,46.83-7.58,6.69-17.5,10.59-26.02,15.97-18.69,12.39-35.6,21.99-55.4,32.23-51.81,26.79-110.62,35.69-168.34,28.66-11.63-1.42-21.58-.67-33.81-4.23-6.67-1.94-20.57-12.28-24.68-12.89l-1.74,1.43c.22,3.55,2.03,5.47,4.9,7.83,14.89,12.29,34.15,15.41,52.69,14.65-12.15,40.48-24.9,69.69-48.11,105.56-26.73,41.29-59.89,77.87-114.14,61.44-4.74-1.44-12.11-4.9-16.77-4.78l-1.19,1.22c2.7,15.2,46.05,16.1,58.78,13.72,18.34-3.41,34.87-13.2,46.69-27.64-4.39,34.66-9.18,69.27-14.37,103.82-1.26,8.64-7.42,46.11-6.59,51.39,2.56,16.44,10.66,45.01,14.82,61.87,8.54,33.73,15.43,67.87,20.63,102.27,6.2,42.15,9.58,84.98,9.75,127.61.08,22.74-4.07,46.07-1.83,68.28,2.53,25.01,5.47,50.41,8.43,75.38,4.97,41.24,9.71,82.51,14.24,123.8,2.76,25.16,6.8,52.22,6.95,77.45.13,21.51-18.05,39.05-37.57,46-3.25-.03-3.13.05-6.25,1.07-18.05.86-29.98-1.09-44.17-13.21-17.49-14.93-17.61-33.68-19.91-54.52-1.39-12.56-2.94-25.31-4.59-37.83l-16.69-129.19c-3.32-26.68-6.6-53.77-10.37-80.38-1.41-9.9-8.34-24.56-12.31-34.53-3.38-8.55-6.32-17.27-8.77-26.13-15.86-55.97-25.81-113.45-29.68-171.49,8.47,1.12,72.1,7.32,71.9-6.07l-1.95-1.6c-7.29-.26-14.27,2.01-21.5,2.63-11.89,1.01-24.34.34-36.21-.83-8.07-.8-19.29-4.17-27.12-3.32-14.49,1.58-28.32,5.57-43.11,4.95-9.51.07-31.86-3.86-37.21-3.13l-1.28,1.85c4.4,11.9,59.7,7.48,71.6,5.23-5.46,67.26-14.67,133.95-38.28,197.44-3.39,9.1-10.01,23.45-11.28,32.81-2.73,20.12-5.23,40.32-7.97,60.47l-18.93,145.02c-2.92,23.19-5.27,46.46-8.89,69.63-3.1,19.81-18.99,36.18-38.29,41.06-1.67.42-1.89.16-3.43.97l3.36,1.33-.08.74c-9.16,2.78-11.51-.67-21.72-1.85l-1.36-.15-5.71-.8c-21.47-8.86-38.19-26.86-36.63-51.2,1.61-25.03,5.15-50.85,7.96-75.81l11.77-107.5c3.47-29.95,7.36-60.87,9.67-90.89.92-17.89-2.44-35.93-2.41-53.81.08-40.63,2.36-81.14,7.57-121.45,6.64-51.38,18.46-101.35,30.72-151.6,2.24-9.17,6.22-20.27,6.9-29.91-.99-16.72-4.62-37.52-7.09-54.39-5.16-33.45-9.63-66.99-13.42-100.62,15.7,16.46,34.8,27.79,58.05,28.05,10.25.12,43.19-2.59,46.87-13.4-1.53-3.04-.41-2.02-3.29-3.38-5.08,1.35-10.22,4-15.57,5.6-68.69,20.61-106.74-47.47-134.38-97.87-12.39-22.6-19.59-44.94-26.94-69.37h-.04Z"/>
  <path class="st1" d="M956.93,635.8c3.43.69,3.3.77,5.94,2.77,1.34,4.73.72,73.95.74,86.27.08,77.83.26,155.95.1,233.8,0,4.11-.1,5.77-1.73,9.62-3.2-.45-4.29-.99-5.93-3.58-1.12-14.48-.55-36.07-.58-51l-.13-88.65.09-121.29c0-11.22-1.34-60.5,1.49-67.95h.01Z"/>
  <path class="st1" d="M873.35,680.07c2.64.6,2.56.42,4.36,2.39,4.62,14.54-3.57,42.9-9.09,56.82,11.04,18.75,23.17,23.41,37.92,35.95,1.22,3.07,1.17,1.58.4,4.62l-2.1.94c-11.93-1.83-32.9-24.79-40.42-34.67l-.96-.06-3.81,4.26c-10.53,11.54-40.05,28.09-55.02,19.84l-.36-1.7c4.95-6.1,14.7-3.82,23.46-6.84,32.18-11.1,40.49-30.75,42.71-63.08.32-4.71.73-14.46,2.91-18.45v-.02Z"/>
  <path class="st1" d="M1042.12,680.06c2.55.66,1.72.33,3.93,1.71,2.25,4.59,2.48,19.16,2.97,24.65,2.6,29.4,17.08,49.99,46.68,56.14,4.32.9,15.48,2.45,18.66,5.04-8.7,15.57-45.29-8.21-54.37-15.9-1.77-1.63-4.04-4.37-5.7-6.25-4.94,7.75-34.03,40.35-42.48,34.09-.16-1.86-.42-3.14,1.34-4.53,14.53-11.45,26.13-19.87,36.75-35.39-.92-2.1-1.75-4.24-2.48-6.41-3.95-11.54-10.76-42.09-5.3-53.15h0Z"/>
  <path class="st1" d="M1102.47,616.66c2.55-.13,1.54-.23,4.02.91,2.25,5.72-3.03,8.93-7.59,11.62-17.21,10.14-37.39,16.95-56.17,23.33-3.04.01-3.12-.4-4.82-2.39l.26-2.05c4.45-5.74,34.01-13.73,43.46-18.81s11.11-5.62,20.83-12.6h.01Z"/>
  <path class="st1" d="M813.34,615.44c3.01.84,15.46,9.43,19.81,11.88,9.74,5.48,41.32,13.95,47.47,20.11.65,3.27.43,2.27-1.2,5.95-12.79-3.83-28.47-10.27-41.03-15.3-6.05-2.43-24.51-11.19-26.66-17.81-.44-1.37.85-3.22,1.6-4.83h.01Z"/>
  <path class="st0" d="M953.18,274.5c66.38-3.86,123.38,46.7,127.47,113.07,4.08,66.37-46.28,123.54-112.64,127.85-66.68,4.33-124.18-46.33-128.29-113.02-4.1-66.69,46.76-124.02,113.46-127.9h0Z"/>
  <path class="st3" d="M1456.55,267.3c6.52-.35,14.24-2.69,15.82,4.47-6.46.27-14.33,2.52-15.82-4.47Z"/>
  <path class="st3" d="M522.39,267.53c5.08-.38,10.12-1.36,14.67.69l1.18,3.34c-6.42.42-13.39,2.57-15.85-4.03Z"/>
  <path class="st3" d="M1041.29,267.46c6.6-.15,13.45-2.96,15.21,4.31-6.2.08-14.04,2.78-15.21-4.31Z"/>
  <path class="st3" d="M496.6,267.54c3.87-.1,10.56-1.19,13.92.42,1.33.64,1.03,1.71,1.48,3.86-6.02.18-14.33,2.33-15.39-4.28h0Z"/>
  <path class="st3" d="M1170.91,267.57c4.67-.3,10.57-1.2,14.63.66l1.11,3.26c-6.17.49-13.62,2.73-15.74-3.93h0Z"/>
  <path class="st3" d="M1586.35,267.58c4.88-.29,10.45-1.17,14.78.66l1.08,3.27c-6.19.4-13.87,2.63-15.85-3.93h-.01Z"/>
  <path class="st3" d="M391.91,267.52c4.85-.38,10.37-1.37,14.64.69l1.03,3.32c-6.54.32-12.95,2.42-15.67-4.01Z"/>
  <path class="st3" d="M549.12,267.48c4.83-.25,11.17-1.22,15,1.16l.14,2.81c-6.02.44-13.86,2.82-15.14-3.96h0Z"/>
  <path class="st3" d="M860.46,267.53c6.45-.36,13.05-2.5,15.89,3.75-6.2.64-13.65,3.01-15.89-3.75Z"/>
  <path class="st3" d="M1352.44,267.32c4.51-.07,11.12-.75,14.83,1.23l.87,3.11c-3.74.17-10.58.87-13.76-.58-1.68-.76-1.21-1.26-1.94-3.76Z"/>
  <path class="st3" d="M235.22,267.59c6.18-.14,14.15-3.02,15.35,3.99-3.64.17-10.81.88-13.95-.54-1.27-.58-.97-1.47-1.4-3.45h0Z"/>
  <path class="st3" d="M705.01,267.48c6.43-.39,13.55-2.73,15.09,4.28-6.23-.03-13.82,2.55-15.09-4.28Z"/>
  <path class="st3" d="M1223.2,267.38c4.63-.01,10.89-.59,14.8,1.41l.79,2.83c-6.23.39-14.25,2.75-15.59-4.24h0Z"/>
  <path class="st3" d="M912.62,267.43c6.13-.33,13.68-2.61,14.9,4.18-6.18.37-13.34,2.59-14.9-4.18Z"/>
  <path class="st3" d="M1534.62,267.6c3.82-.29,10.19-1.14,13.57.15,1.8.69,1.27,1.04,2.21,3.59-5.81.44-13.45,2.37-15.78-3.74h0Z"/>
  <path class="st3" d="M1690.78,267.45c6.34-.29,13.55-2.49,15.26,4.24-6.12.27-13.74,2.42-15.26-4.24Z"/>
  <path class="st3" d="M495.45,1673.79c6.24-.49,13.99-2.57,17.47,3.05-6.5.71-13.7,2.82-17.47-3.05h0Z"/>
  <path class="st3" d="M627.86,267.46c6.72.06,12.97-2.66,14.93,4.28-6.09.35-13.79,2.61-14.93-4.28Z"/>
  <path class="st3" d="M418.65,267.43c6.22-.36,13.49-2.64,14.79,4.25-6.11.27-13.27,2.37-14.79-4.25Z"/>
  <path class="st3" d="M1508.81,267.38c4.62-.24,11.06-1.2,14.62,1.23l-.07,2.81c-6.19.36-12.8,2.54-14.55-4.04Z"/>
  <path class="st3" d="M1612.52,267.62c6.37-.14,13.97-3.14,15.26,4.04-4.39.06-11.23.76-14.68-1.22l-.58-2.82Z"/>
  <path class="st3" d="M874.2,1672.96c1.96.08,1.07-.27,2.6,1.19l-.59,1.7c-4.24,2.03-6.45,1.55-11.13,1.43-2.47-.34-1.58.26-3.03-1.35l.72-1.43c4.39-1.89,6.67-1.53,11.44-1.53h0Z"/>
  <path class="st3" d="M1482.83,267.51c5.82-.32,14.56-2.68,15.28,3.98-4.76.16-10.47.91-14.56-1.23l-.72-2.75Z"/>
  <path class="st3" d="M234.47,1673.82c4.26-.46,10.06-1.39,14.09-.31,2.04.55,1.37.65,2.7,3.33-6.04.57-13.5,2.61-16.78-3.02h0Z"/>
  <path class="st3" d="M1664.82,267.38c6.19-.32,13.74-2.58,15.05,4.25-4.31.06-10.8.72-14.27-1.19l-.78-3.06Z"/>
  <path class="st3" d="M1093.03,267.52c5.99,0,14.3-2.69,15.16,3.98-4.17.21-11.22,1.13-14.51-1l-.65-2.98Z"/>
  <path class="st3" d="M808.62,267.35c5.94-.32,14.01-2.62,14.8,4.14-6.23.24-13.05,2.39-14.8-4.14Z"/>
  <path class="st3" d="M679.22,267.49c3.43-.15,10.26-.8,13.2.5,1.34.59,1.12,1.67,1.67,3.72-5.98.25-13.59,2.35-14.87-4.22Z"/>
  <path class="st3" d="M1251.55,1672.99c4.07-.25,7.05-.71,11.05.21l.98,1.59-1.02,2.44c-3.39.07-10.6.56-13.09-1.56l.13-1.37,1.94-1.31h.01Z"/>
  <path class="st3" d="M391.68,1673.76c6.05-1.02,13.47-2.85,16.46,3.16-6.21.53-13.09,2.45-16.46-3.16Z"/>
  <path class="st3" d="M1197.36,267.59c6.25-.36,13.18-2.6,15.55,3.67-6.28.49-13.04,2.69-15.55-3.67Z"/>
  <path class="st3" d="M1067.36,267.48c4.22-.23,11.24-1.26,14.39,1.15l.33,2.85c-6,.31-13.11,2.47-14.72-4Z"/>
  <path class="st3" d="M444.86,267.43c4.48-.16,10.36-1,14.01,1.04l.78,3.19c-6.12.22-13.1,2.29-14.79-4.23Z"/>
  <path class="st3" d="M886.73,267.53c4.04-.19,11.89-1.15,14.84,1.17l.31,2.77c-5.8.21-13.81,2.29-15.15-3.94Z"/>
  <path class="st3" d="M1405.22,267.55c5.92-.39,13.38-2.69,14.4,4.01-5.78.3-13.3,2.44-14.4-4.01Z"/>
  <path class="st3" d="M783.06,267.46c3.54-.19,10.4-.92,13.43.5,1.36.64,1.06,1.55,1.57,3.68-5.99.11-12.96,1.99-15-4.18Z"/>
  <path class="st3" d="M1508.93,1673.6c4.04-.32,10.27-1.13,13.98.07,1.74.56,1.26.91,2.22,3.33-6.01.31-13.67,2.42-16.2-3.4h0Z"/>
  <path class="st3" d="M369.96,267.67l1.08-.1c3.91-.34,6.76-.79,9.83,1.79l-.1,1.68-2.72.63c-.89.04-1.78.08-2.67.09-3.61.08-6.4.12-9-2.32l.61-1.13,2.97-.62v-.02Z"/>
  <path class="st3" d="M941.69,267.68c3.73-.41,8.35-1.23,11.03,1.86l-.28,1.37-2.67.87c-.87.05-1.73.08-2.61.09-3.66.08-6.2.02-8.79-2.5l.48-1.1,2.84-.6h0Z"/>
  <path class="st3" d="M340.13,267.37c6.23-.21,13.18-2.31,14.66,4.33-4.66.14-10.02.95-13.86-1.27l-.79-3.06h-.01Z"/>
  <path class="st3" d="M287.58,267.36c6.01-.36,13.75-2.67,14.51,4.2-4.65,0-9.62.63-13.63-1.22l-.88-2.98Z"/>
  <path class="st3" d="M1638.93,267.59c5.98-.3,12.75-2.35,15.53,3.31-6.03.71-13.65,3.33-15.53-3.31Z"/>
  <path class="st3" d="M1612.3,1673.84c6.06-.53,13.75-2.79,16.88,2.82-6.12.67-13.45,2.78-16.88-2.82Z"/>
  <path class="st3" d="M757.27,267.49c6.17-.33,13.29-2.58,14.55,4.2-5.9.13-13.21,2.13-14.55-4.2Z"/>
  <path class="st3" d="M1330.13,267.67c4.17-.25,8.61-1.17,11.49,1.32l-.29,1.92-1.66.88c-4.73.03-7.52.21-11.94-1.5l-.31-1.57,2.71-1.05h0Z"/>
  <path class="st3" d="M1382.87,267.69c4.3-.35,6.65-.87,10.43,1.4l-.1,1.85-2.77.68c-3.97.22-8.92,1.03-11.42-2.55,1.61-1.64.81-.92,3.86-1.38Z"/>
  <path class="st3" d="M731.47,267.6c5.8-.22,12.39-2.06,15.15,3.24-5.11,1.57-13.28,2.96-15.15-3.24Z"/>
  <path class="st3" d="M1352.6,1673.6c5.26-.38,9.85-1.26,14.72.58l1.3,3.02c-5.77.16-13.79,2.04-16.02-3.6Z"/>
  <path class="st3" d="M1015.94,267.44c6.3-.16,12.66-2.25,14.32,4.18-6.02.33-13.04,2.47-14.32-4.18Z"/>
  <path class="st3" d="M297.68,1672.9c2.35-.23,2.21-.33,4.3.74l-.03,1.55c-3.94,2.82-2.64,1.96-8.31,2.17-2.38-.07-2.4-.16-4.7-.9l-.36-1.47c3.17-2.5,4.78-2.03,9.1-2.08h0Z"/>
  <path class="st3" d="M1143.69,1673.81c5.8-.44,13.82-2.53,16.73,2.92-6.06.63-13.57,2.77-16.73-2.92Z"/>
  <path class="st2" d="M1118.5,1673.7c3.12-1.02,3-1.1,6.25-1.07,4.28.82,4.37.15,7.25,2.56-1.91,3.56-9.16,2.41-12.37,1.2l-1.13-2.69h0Z"/>
  <path class="st3" d="M913.89,1673.68c6.03-.44,13.26-2.68,15.24,3.68-5.72.28-13.21,2.26-15.24-3.68Z"/>
  <path class="st3" d="M1169.89,1673.8c5.96-.45,13.87-2.53,16.96,2.99-6.13.53-13.54,2.56-16.96-2.99Z"/>
  <path class="st3" d="M471.19,267.5c4.15,0,10.34-.56,13.83,1.17l.77,2.84c-5.97.38-13.47,2.68-14.6-4.01h0Z"/>
  <path class="st2" d="M522.36,1673.82c5.53-.49,13.41-2.49,16.43,2.52-3.69.9-10.18,1.67-13.87.58-2.01-.59-1.29-.53-2.56-3.1Z"/>
  <path class="st2" d="M627.76,1673.64c5.03-.29,10.26-1.14,14.88.53l1.2,2.82c-4.73.25-10.79,1.1-14.99-.62l-1.1-2.74h0Z"/>
  <path class="st3" d="M1664.54,1673.81c5.32-.6,9.98-1.62,14.98.09l1.24,2.55c-5.73,1.27-12.73,2.49-16.22-2.64Z"/>
  <path class="st2" d="M1196.28,1673.81c5.7-.55,13.46-2.58,16.59,2.61-5.69,1.14-13.43,2.85-16.59-2.61Z"/>
  <path class="st2" d="M365.47,1673.8c6.39-.72,12.95-2.96,16.26,3.03-6.17.48-12.88,2.46-16.26-3.03Z"/>
  <path class="st3" d="M835.09,267.47c4.65-.24,10.24-1.18,13.91,1.23l.14,2.69c-6.02.31-12.72,2.5-14.05-3.92Z"/>
  <path class="st3" d="M732.2,1673.81c5.22-.56,9.52-1.35,14.5.18l1.39,2.82c-5.21.51-9.51,1.3-14.45-.24l-1.43-2.76h-.01Z"/>
  <path class="st3" d="M1456.43,1673.8c5.88-.6,13.41-2.83,16.17,2.98-5.93.55-12.89,2.51-16.17-2.98Z"/>
  <path class="st2" d="M548.39,1673.78c5.7-.74,12.96-2.36,16.37,2.57-5.47,1.48-13.08,2.64-16.37-2.57Z"/>
  <path class="st2" d="M794.55,1672.81l5.71.8c-.94,2.01-.87,1.88-2.57,3.31-5.75,1.35-6.78,1.58-11.76-1.38l-.31-1.41c3.31-.68,5.55-.96,8.92-1.32h.01Z"/>
  <path class="st3" d="M1013.96,1673.65c5.83-.26,13.46-2.26,16.05,3.3-4.88.35-10.61,1.34-14.94-.49l-1.11-2.81Z"/>
  <path class="st3" d="M1222.45,1673.77c6.26-.61,13.08-2.63,16.68,3.08-6.2.44-13.18,2.42-16.68-3.08Z"/>
  <path class="st3" d="M261.3,1673.64c6.09-.49,13.13-2.67,15.8,3.37-5.78.28-13.3,2.28-15.8-3.37Z"/>
  <path class="st3" d="M1560.62,267.43c5.94-.06,13.28-1.96,15.97,3.45-4.75.39-11.02,1.44-15.13-.65l-.83-2.8h-.01Z"/>
  <path class="st3" d="M652.54,268.5c5.24-.67,9.61-1.73,14.47.1l1.23,2.74c-5.97.67-12.3,2.6-15.7-2.84h0Z"/>
  <path class="st2" d="M1547.95,1672.94l1.21.36c.92,2.12.89,1.06.15,3.18-2.92,1.37-7.62.82-11.03.72l-1.9-.54-.52-1.14.83-1.13c4.07-1.45,6.96-1.27,11.26-1.43v-.02Z"/>
  <path class="st3" d="M576.96,267.64c4.03-.3,9.76-1.58,12.61,1.39l-.18,2.73c-4.45.12-9.99,1.01-12.92-1.74l.49-2.38h0Z"/>
  <path class="st3" d="M987.96,1673.68c5.82-.31,13.1-2.41,15.46,3.33-5.72.46-13.52,2.67-15.46-3.33Z"/>
  <path class="st3" d="M679.51,1673.82c6.17-.56,13.04-2.63,16.28,3.01-6.1.6-13.02,2.53-16.28-3.01Z"/>
  <path class="st3" d="M758.22,1673.68c6.15-.28,13.1-2.3,15.97,3.47-5.74.3-13.69,2.32-15.97-3.47Z"/>
  <path class="st2" d="M470.38,1673.65c4.69-.27,10.27-1.12,14.51.58l1.05,2.73c-4.76.3-10.35,1.24-14.57-.62l-.99-2.69Z"/>
  <path class="st3" d="M887.56,1673.82c6.21-.5,12.94-2.44,16.45,2.99-6.17.65-13.12,2.62-16.45-2.99Z"/>
  <path class="st3" d="M1040.15,1673.68c5.42-.41,13.64-2.57,15.49,3.2-4.7.34-9.98,1.2-14.28-.46l-1.21-2.74Z"/>
  <path class="st3" d="M601.61,1673.82c5.88-.42,13.16-2.53,16.04,2.97-6.2.72-12.66,2.72-16.04-2.97Z"/>
  <path class="st3" d="M1274.68,1673.81c5.91-.5,12.96-2.52,16.05,2.98-6.21.75-12.63,2.65-16.05-2.98Z"/>
  <path class="st3" d="M1482.59,1673.82c5.99-.54,13.39-2.71,16.38,3-5.93.8-12.66,1.98-16.38-3Z"/>
  <path class="st2" d="M418.28,1673.82c6.14-.76,12.7-2.66,16.03,2.98-5.93.43-12.95,2.48-16.03-2.98Z"/>
  <path class="st2" d="M1716.95,1673.62c5.77-.34,13.42-2.4,15.52,3.52-6.15.2-12.91,2.27-15.52-3.52Z"/>
  <path class="st3" d="M1312.88,267.68c.35-.02,2.32.48,2.73.58l-.69,2.24c-3.61,2.01-5.76,1.43-10.1,1.24-2.49-.52-1.63.16-2.95-1.61l.61-1.09c3.91-1.78,5.97-1.37,10.41-1.35h-.01Z"/>
  <path class="st3" d="M1131.82,267.68c1.12.18.45-.06,1.61,1.37l-.53,1.87c-3.26,1.37-7.76.76-11.45.6l-2.34-1.17.69-1.61c4.32-1.21,7.55-1,12.02-1.06Z"/>
  <path class="st3" d="M1586.68,1673.64c4.7-.28,10.44-1.14,14.56.8l.94,2.74c-6.05.14-12.85,2.12-15.5-3.53h0Z"/>
  <path class="st3" d="M1144.2,268.49c4.57-.8,11.09-1.75,15.31.35l.89,2.62c-6.1.24-11.78,1.56-16.2-2.97h0Z"/>
  <path class="st3" d="M261.37,267.53c6.07-.21,12.54-2.23,15.14,3.53-4.6.25-10.59,1.17-14.5-.81l-.65-2.72h0Z"/>
  <path class="st2" d="M339.41,1673.85c4.88-.48,9.87-1.36,14.48.1l1.23,2.58c-5.03.65-9.45,1.42-14.31,0l-1.4-2.68h0Z"/>
  <path class="st3" d="M653.8,1673.7c4.92-.23,9.86-1.12,14.27.48l1.19,2.88c-4.76.17-10.11.98-14.36-.61l-1.1-2.75h0Z"/>
  <path class="st3" d="M1276.07,267.6c6.03-.15,11.93-2.01,14.65,3.46-4.48.39-10.68,1.39-14.51-.78l-.14-2.68Z"/>
  <path class="st3" d="M1638.76,1673.79c5.87-.69,12.93-2.63,15.87,3.02-6.02.44-12.64,2.33-15.87-3.02Z"/>
  <path class="st3" d="M706.27,1673.72c4.71-.26,9.86-1.13,14.09.47l1.2,2.81c-4.49.28-10.27,1.17-14.28-.53l-1.01-2.75Z"/>
  <path class="st3" d="M1716.41,268.42c5.25-.94,13.01-2.6,15.77,2.52-5.69,1.55-11.92,2.25-15.77-2.52Z"/>
  <path class="st3" d="M314.15,267.57c6.33.01,12.32-2.1,14.69,3.83-4.66.24-10.03.99-14.09-1.18l-.6-2.65Z"/>
  <path class="st2" d="M1326.85,1673.67c6.35-.35,12.5-2.45,15.29,3.59-5.92.16-12.77,2.05-15.29-3.59Z"/>
  <path class="st3" d="M209.16,1673.83c5.44-.56,12.67-2.44,15.56,2.49-5.31,1.44-12.69,2.9-15.56-2.49Z"/>
  <path class="st3" d="M1378.91,1673.82c5.58-.69,12.85-2.26,15.89,2.77-5.99.81-12.66,2.77-15.89-2.77Z"/>
  <path class="st3" d="M990.43,267.67c3.97-.24,10.98-1.54,13.29,1.72l-.82,2.01c-3.68-.02-11.63.68-13.62-2.28l1.14-1.45h.01Z"/>
  <path class="st3" d="M1690.72,1673.64c5.73-.33,13.3-2.36,15.43,3.44-6.07.2-12.79,2.24-15.43-3.44Z"/>
  <path class="st3" d="M1435.77,267.63c4.36-.25,6.69-1.12,9.82,2.24l-.82,1.32-2.71.15c-3.67.27-7.72.78-10.56-1.95,1.58-2.06.63-1.15,4.27-1.76h0Z"/>
  <path class="st3" d="M314.04,1673.66c4.63-.3,10.03-1.18,14.09.76l.88,2.65c-5.65.24-12.91,2.24-14.96-3.41h-.01Z"/>
  <path class="st3" d="M1560.94,1673.8c5.31-.65,12.43-2.18,15.49,2.5-5.38,1.49-12.55,2.89-15.49-2.5Z"/>
  <path class="st3" d="M1301.04,1673.67c4.6-.25,10.01-1.08,14.17.49l.88,2.65c-5.74.43-12.89,2.65-15.05-3.14Z"/>
  <path class="st2" d="M835.32,1673.82c4.8-.53,12.42-2.13,15.04,2.17-4.27,1.81-9.2,1.89-13.63.57l-1.41-2.74Z"/>
  <path class="st3" d="M444.13,1673.68c4.59-.3,9.77-1.2,13.9.47l1.08,2.74c-4.57.26-9.97,1.18-13.97-.56l-1-2.64h0Z"/>
  <path class="st3" d="M1431.39,1673.7c5.88-.3,12.64-2.34,15.06,3.43-4.62.19-10.12,1.02-14.14-.78l-.92-2.65Z"/>
  <path class="st3" d="M1066.6,1673.69c4.58-.15,10.02-.89,14.1.74l1.08,2.64c-4.64.22-10.11,1.1-14.18-.66l-.99-2.73h0Z"/>
  <path class="st2" d="M1405.03,1673.76c4.67-.28,9.57-1.15,13.77.45l1.08,2.73c-4.28.27-10.28,1.2-13.99-.59l-.86-2.59Z"/>
  <path class="st3" d="M575.19,1673.8c4.89-.47,9.39-1.35,13.97.24l1.26,2.66c-6.17.57-11.61,2.53-15.23-2.91h0Z"/>
  <path class="st3" d="M208.98,268.39c4.68-.48,9.93-1.53,14.13.4l.84,2.87c-5.31.02-12.35,1.54-14.97-3.27Z"/>
  <path class="st3" d="M601.67,268.34c4.85-.41,9.72-1.34,14.12.49l.92,2.8c-5.17.14-12.97,1.89-15.03-3.28h0Z"/>
  <path class="st3" d="M939.07,1673.66c1.51-.1,3.02-.19,4.53-.26,5.62-.33,7.25-1.48,9.68,3.84-5.82.25-12.02,2.22-14.21-3.58Z"/>
  <path class="st3" d="M963.3,1673.75c4.65-.25,9.09-1.22,13.15.42l1.16,2.79c-4.43.28-9.55,1.21-13.44-.47l-.87-2.75h0Z"/>
  <path class="st3" d="M963.86,267.58c3.43.02,10.55-.53,12.97,1.5l.08,2.37c-3.99.15-9.7.97-12.88-1.14l-.18-2.74h.01Z"/>
  <path class="st2" d="M185.71,1673.82c6.19-.55,10.84-2.45,14.41,3.01-5.85.67-11.52,2.55-14.41-3.01Z"/>
  <path class="st3" d="M185.57,268.49c5.09-.93,10.53-2.46,13.35,2.24-4.68,2.11-9.83,1.48-13.35-2.24Z"/>
</svg>