<?xml version="1.0" encoding="UTF-8"?>
<svg id="Layer_1" xmlns="http://www.w3.org/2000/svg" version="1.1" viewBox="0 0 1920 1920">
  <!-- Generator: Adobe Illustrator 30.3.0, SVG Export Plug-In . SVG Version: 2.1.3 Build 182)  -->
  <defs>
    <style>
      .st0 {
        fill: #2f2e2e;
      }

      .st1 {
        fill: #fbfbfa;
      }

      .st2 {
        fill: #bab9bd;
      }
    </style>
  </defs>
  <path class="st1" d="M693.04,689.91c1.26,2.31,2.58,4.59,3.95,6.84,2.69,4.32,6.21,10.3,11.25,11.43,2.53-1.07,1.63-.21,2.87-2.55-2.83-6.61-11.65-16.13-13.23-21.45-15.78-52.99,27.66-107.71,76.97-123.1,17.89-5.58,34.37-9.03,52.96-9.65,7.78-.26,16.43,1.71,24.35.57,30.82-8.35,62.19-13.47,94.12-15.11,21.38-1.25,42.52,1.3,63.67,3.72,20.02,2.29,38.15,7.57,57.68,11.57,6.19,1.27,17.68-1.44,24.77-.96,23.33,1.58,47.6,6.26,68.77,16.42,27.8,13.48,49.15,37.37,59.46,66.5,5.95,17.2,7.61,38.79-1.13,55.44-3.04,5.78-12.41,12.2-9.8,19.23l2.02-.08c8.03-5.53,9.95-9.89,14.9-18.24,3.86,4.19,7.47,8.61,10.81,13.23,30.34,41.22,37.12,82.35,29.78,131.85,9.15,17.81,15.89,26.14,24.42,46.49,22.67,51.42,19.57,106.29,21.21,160.91.7,23.29,8.38,46.67,4.6,70.87-1.7,10.87-8.2,20.03-10.01,29.28-2.94,15.01-3.76,31.72-6.68,46.89-1.17,8.17-4.15,36.56-21.83,23.99-6.91-4.92-5.1-27.01-4.93-36.47l.49-37.89-9.34,3.76c-11.58-2.84-13.43-3.64-24.17.12-1.8-.65-3.58-1.34-5.35-2.06-7.02-2.91-8.83-6.2-11.66-12.91.72-6.9,2.13-13.44,2.46-20.72,1.01-22.43-2.51-37.24,21.03-49.53,4.75-2.48,14.46-5.17,18.52-8.45.74-.61.27-1.72.09-2.98-4.85-2.41-12.11.79-17.57,2.44-37.58-46-79.13-98.33-79.54-160.41-.06-8.04.44-12.1,3.83-19.58-24.11-23.56-37.26-46.42-38.54-80.85-.28-7.77,2.6-34.79-2.73-39.22l-1.77.63c-5.39,6.81-2.99,39.92-2.18,50.04-4.66,9.46-10.72,16.64-17.29,24.77-3.02,18.24-4.76,41.99-7.56,61.46l-9.55,64.07c-1.03,6.9-4.99,30.83-4.18,36.16,2.66,17.55,9.33,38.9,13.47,56.63,8.86,38.01,17.52,76.15,22.94,114.82,5.86,41.31,8.73,82.99,8.57,124.71-.2,17.11-3.83,44.32-2.49,59.08,3.02,33.22,7.81,67.86,11.81,101.09,4.06,36.42,7.88,72.87,11.43,109.34,2.41,23.4,5.71,47.27,6.89,70.68,1.22,24.07-16.31,42.83-38.01,50.24-1.59.13-3.66.23-5.19.47-15.7,2.04-30.96-.72-43.61-10.87-18.77-15.06-18.66-33.57-21.16-55.55-1.45-12.01-3.02-24-4.69-35.98-6.53-49.35-12.75-98.75-18.65-148.17-2.67-21.72-5.09-43.69-7.92-65.36-1.35-10.37-7.93-24.98-11.8-35.15-4.34-11.37-8.11-22.95-11.27-34.71-16.05-59.52-22.24-105.51-28.04-166.83l-25.16.08c-2.48,57.18-15.05,122.91-30.71,177.62-4.33,15.12-14.51,37.28-17.53,50.45-3.84,16.75-6.37,46.17-8.58,63.96-4.58,34.12-8.95,68.26-13.11,102.43l-9.99,80.76c-1.1,9.22-2.85,31.2-4.78,38.88-1.73,6.95-4.92,13.45-9.34,19.09-19.12,24.51-53.34,26.92-76.93,7.28-23.47-19.54-17.58-44.31-14.63-70.57l4.35-41.55,11.93-109.72c3.59-30.37,7.66-61.09,10.43-91.53,1.68-18.42-2.26-40.01-2.54-59.4-.32-42.13,2.4-84.23,8.12-125.98,5.95-41.56,13.57-78.64,23.47-119.43,3.58-18.53,10.87-37.47,13.27-56.06.98-7.63-1.94-19.64-3.04-27.25-6.48-44.71-13.34-89.35-17.3-134.36-6.98-8.55-13.2-15.47-18.33-25.23,1.86-11.34,4.96-39.35.21-49.57-2.42-1.95-1.11-1.61-3.99-1.32-3.44,4.11-1.6,18.35-1.4,24.24.21,8.05-.18,16.11-1.17,24.11-1.33,11.41-4.34,22.56-8.92,33.1-3.79,8.63-8.29,15.89-14.13,23.31-3.48,4.43-12.67,10.85-13.47,15.76,4.98,14.28,2.66,25.49.69,40.16-7.26,54.04-44.76,97.87-77.94,138.94-5.01-1.51-9.77-3.38-14.91-3.24-2.87,1.43-1.94.35-2.97,3.27,2.22,4.74,9.63,4.93,14.54,6.68,27.77,10.17,25.14,29.22,25.78,53.03.5,18.65,9.21,25.79-14.42,34.72-3.33-.82-7.19-2.17-10.51-3.22-11.12,3.31-13.25,3.43-23.68-.2.58,17.62.69,34.21,1.14,52.91,3.21,11.47-10.23,36.19-21,19.25-8.14-12.8-8.12-51.25-11.67-66.73-2.09-9.08-7.19-15.84-9.08-23.35-8.11-26.62,2.84-57.67,3.15-83.5.73-61.1-.86-120.97,29.96-176.4,4.59-8.25,10.5-17,14.91-25.65l.39-.77c-.64-5.6-1.24-11.2-1.8-16.8-5-51.24,10.22-89.92,42.48-129.07v-.04Z"/>
  <path class="st0" d="M785.21,688.48c5.1,1.13,6.11,4,8.02,8.39,3.57,8.22,6.93,16.21,12.95,23,29.23,32.97,97.68,20.28,104.35,26.3.74,3.57.79,1.74-.96,5.6-43.46,3.72-104.43-1.42-122.02-48.14-2.18-5.78-4.66-9.13-2.33-15.15h0Z"/>
  <path class="st0" d="M1129.1,688.52l3.43.57c1.19,1.31,2.2,2.26,1.57,4.46-15.77,54.96-71.52,60.44-121.84,58.34-1.65-.03-2.29-.29-3.92-.65-2.19-2.47-1.82-1.13-1.72-3.96,1.23-1.66,1.24-2.43,2.7-2.53,7.34-.51,15.59-.15,22.97-.23,13.92-.09,27.78-1.79,41.31-5.06,17.45-4.21,35.73-11.68,44.4-28.54,3.87-7.52,6.5-15.18,11.09-22.4h0Z"/>
  <path class="st0" d="M956.77,645.69c2.94.7,5.87,1.25,5.9,4.86.23,24.82.65,49.75.1,74.56-.05,2.22-1.27,4.08-2.43,5.85-1.53-.31-5.11-1.15-5.01-3.11.69-13.92-3.06-73.83,1.43-82.16h.01Z"/>
  <path class="st0" d="M1221.41,867.12c2.98,1.76,3.41,2.34,2.99,5.4-8.88,9.58-32.27,10.99-43.94,6.25-2.03-1.85-5.24-6.28-7.05-8.63,21.97,4.42,26.59,5.66,48-3.02Z"/>
  <path class="st0" d="M696.75,867.67c9.3,3.07,17.34,5.83,27.22,6.44,6.63.41,15.34-4.11,19.19-2.11.02,3.24-.29,2.57-2.5,5.85-10.88,5.78-34.1,5.4-43.82-3.9-1.73-1.65-.59-4.27-.09-6.28h0Z"/>
  <path class="st0" d="M1078.91,702.28c4.46-.19,6.26-.29,9.56,2.95.09,9.24-10.79,13.01-18.16,15.23-4.21.43-5.5.24-8.96-1.66-4.7-8.38,11.63-14.96,17.56-16.52h0Z"/>
  <path class="st0" d="M831.96,701.92c7.96-.36,21.91,3.94,25.03,12.49.9,2.47-1.11,4.22-2.5,6.09-9.53,0-30.71-5.15-22.53-18.58Z"/>
  <path class="st2" d="M654.7,1118.33c3.75.18,5.07.12,7.78,2.54l.1,2.11c-2.97,4.44-8.1,7.46-12.58,10.7-2.41,2.55-1.33,2.1-4.28,3.16-2.95-6.95,3.02-14.92,8.98-18.51h0Z"/>
  <path class="st2" d="M1257.37,1119.54c12.25-.98,18.04,5.35,15.64,17.5-2.4-1.47-14.37-10.94-16.17-13.91-.69-1.13,0-2,.53-3.59Z"/>
  <path class="st1" d="M954.73,273.21c66.34-2.75,122.46,48.59,125.59,114.92s-47.89,122.73-114.2,126.25c-66.85,3.54-123.82-47.99-126.98-114.85-3.16-66.87,48.7-123.54,115.59-126.31h0Z"/>
  <path class="st2" d="M1118.37,1673.43c1.54-.23,3.6-.34,5.19-.47,2.96.46,4.68.52,7.37,1.91l.32,1.41c-3.81,2.28-8.03,1.57-12.08.51-1.11-2.14-.86-1.01-.8-3.36h0Z"/>
  <path class="st1" d="M628.83,1673.8c5.86-.32,12.74-2.4,15.18,3.34-4.63.19-10.19,1.01-14.28-.62l-.89-2.72h0Z"/>
  <path class="st1" d="M1482.28,267.61c5.85-.53,12.83-2.67,15.67,2.93-5.56.59-12.68,2.12-15.67-2.93Z"/>
  <path class="st1" d="M391.96,267.5c4.87-.66,9.72-1.15,14.42.33l1.23,2.47c-5.93.83-12.09,2.37-15.65-2.8h0Z"/>
  <path class="st2" d="M1691.63,267.47c4.75-.27,9.81-1.16,14.05.52l.95,2.67c-5.67.24-12.55,2.2-15-3.19Z"/>
  <path class="st1" d="M522.78,267.5c4.78-.31,9.63-1.2,13.93.43l1.06,2.72c-5.38.26-12.81,2.18-14.99-3.15Z"/>
  <path class="st2" d="M733.82,1673.75c5.55-.28,12.51-2.27,14.71,3.22-4.29.27-10.14,1.16-13.88-.66l-.83-2.56h0Z"/>
  <path class="st1" d="M1378.9,267.49c4.09-.4,10.39-1.57,13.77.37l.25,2.59c-4.16.21-9.46,1.09-13.02-.4l-1-2.56Z"/>
  <path class="st1" d="M1041.5,267.49c4.43-.32,9.68-1.26,13.64.41l.87,2.71c-4.39.19-9.82,1.03-13.64-.57l-.87-2.56h0Z"/>
  <path class="st1" d="M262.51,267.54c5.98-.31,12.06-2.36,14.81,3.23-4.52.19-10.09,1.03-14.02-.71l-.79-2.52h0Z"/>
  <path class="st2" d="M392.58,1673.81c5.09-.3,12.34-1.85,15.58,2.17-5.05,2.06-12.41,2.93-15.58-2.17Z"/>
  <path class="st1" d="M679.22,267.43c4.55-.3,9.69-1.16,13.73.62l.88,2.59c-5.54.3-12.24,2.2-14.61-3.21Z"/>
  <path class="st1" d="M1535.41,267.51c4.21-.34,9.9-1.36,13.5.6l.76,2.58c-5.23.3-12.39,2.2-14.26-3.17h0Z"/>
  <path class="st1" d="M1327.27,267.49c4.26-.37,9.85-1.39,13.57.5l.85,2.69c-5.17.23-12.37,2.02-14.42-3.19h0Z"/>
  <path class="st1" d="M1274.88,267.6c5.67-.62,12.68-2.84,15.14,2.95-5.93.35-11.36,1.97-15.14-2.95Z"/>
  <path class="st2" d="M262.62,1673.84c5.79-.43,12.14-2.31,15.54,2.68-5.59,1.05-12.25,2.32-15.54-2.68Z"/>
  <path class="st2" d="M444.39,267.61c4.38-.53,9.44-1.18,13.57.18l1.36,2.72c-5.81.37-11.87,2.35-14.92-2.89h0Z"/>
  <path class="st1" d="M782.3,267.59c5.6-.54,12.08-2.49,15.18,2.54-5.79,1.09-11.55,2.52-15.18-2.54Z"/>
  <path class="st2" d="M418.88,1673.77c4.49-.18,9.77-1,13.72.42l1.06,2.61-6.15.31c-3.47.19-4.38.57-7.69-.72l-.94-2.62h0Z"/>
  <path class="st2" d="M1614.17,1673.86c3.77-.14,10.74-.98,13.75.88l.24,2.49c-3.8.05-11.27.78-14.11-1.25l.11-2.13h.01Z"/>
  <path class="st1" d="M1352.66,267.51c4.66-.36,9.73-1.24,13.99.41l1.03,2.8c-4.79.03-9.91.58-14.18-1.17l-.83-2.03h-.01Z"/>
  <path class="st1" d="M548.28,267.59c5.37-.64,12.75-2.19,15.78,2.56-5.59.89-12.18,2.11-15.78-2.56Z"/>
  <path class="st2" d="M1665.68,1673.81c5.78-.47,11.84-2.22,15.05,2.9-5.84.85-11.81,2.33-15.05-2.9Z"/>
  <path class="st1" d="M834.45,267.54c4.7-.27,9.42-1.15,13.63.39l1.13,2.72c-4.92.21-13.36,2.07-14.76-3.11h0Z"/>
  <path class="st1" d="M1092.77,267.59c5.74-.61,12.12-2.58,15.15,2.66-6.1.6-11.3,2.51-15.15-2.66Z"/>
  <path class="st2" d="M1197.19,1673.83c5.71-.31,11.92-2.33,14.38,3.13-4.45.24-9.61,1.05-13.57-.64l-.82-2.49h0Z"/>
  <path class="st1" d="M628.1,267.49c4.5-.25,9.45-1.02,13.51.53l1.05,2.59c-5.11.3-12.97,2.27-14.56-3.13h0Z"/>
  <path class="st1" d="M1011.4,1674.74c4.97-1.17,12.36-1.89,15.96,2.02-5.48,1.43-11.88,2.23-15.96-2.02h0Z"/>
  <path class="st2" d="M1482.06,1673.87c5.99-.4,12.02-2.32,15.33,2.94-5.88.41-12.04,2.27-15.33-2.94Z"/>
  <path class="st2" d="M1301.36,1673.85c5.53-.21,12.07-2.21,14.42,3.05-4.03.27-10.32,1.24-13.79-.52l-.63-2.53Z"/>
  <path class="st1" d="M731.05,267.52c4.41-.12,9.86-.93,13.66.53l.96,2.58c-4.22.21-10.17,1.04-13.81-.74l-.81-2.38h0Z"/>
  <path class="st2" d="M991.71,1673.86c4.16-.15,5.42-.65,8.5,1.75l-.74,1.31-3.62.62c-3.97.06-6.48.5-9.34-2.26,2.63-1.91,1.2-1.12,5.19-1.43h.01Z"/>
  <path class="st1" d="M1145.16,267.58c5.19-.63,12.14-2.42,15.05,2.35-5.18,1.39-11.84,2.4-15.05-2.35Z"/>
  <path class="st1" d="M1639.39,267.5c4.55-.34,9.54-1.23,13.6.52l.83,2.6c-4.25.08-9.8.73-13.45-.74l-.98-2.38Z"/>
  <path class="st1" d="M366.68,267.62c4.67-.49,9.12-1.39,13.43.16l1.23,2.65c-5.73.38-11.38,2.19-14.66-2.81Z"/>
  <path class="st1" d="M341.33,267.7c3.95-.32,10.25-1.46,13.04.89l-.22,2.21c-4.28.12-10.08.94-13.34-1.13l.53-1.97h-.01Z"/>
  <path class="st1" d="M1509.08,267.47c4.44-.32,9.02-1.09,13.01.46l1.18,2.76c-5.37.22-12.25,2.17-14.19-3.22h0Z"/>
  <path class="st1" d="M1613.62,267.68c5.65-.51,12.02-2.74,13.82,3.13-3.71.14-10.45.97-13.4-.93l-.42-2.2h0Z"/>
  <path class="st2" d="M210.95,1673.81c5.73-.22,12.04-2.03,14.75,3.2-4.5.21-9.99,1.01-13.97-.67l-.78-2.53h0Z"/>
  <path class="st1" d="M1222.93,267.47c3.93-.3,11.27-1.35,14.33.68l.15,2.34c-5.48,0-11.97,2.07-14.48-3.02Z"/>
  <path class="st1" d="M1171.12,267.59c4.67-.66,12.79-2.3,15.21,2.12-2.73.82-5.56,1.18-8.4,1.08-4.45-.17-4.66-.57-6.81-3.19h0Z"/>
  <path class="st2" d="M1379.17,1673.75c5.54-.22,11.99-2.06,14.48,3.18-5.37.31-12.4,2.23-14.48-3.18Z"/>
  <path class="st1" d="M911.62,267.53c5.12-.34,13.2-2.45,14.65,3.02-5.78.15-12.17,2.3-14.65-3.02Z"/>
  <path class="st2" d="M1561.84,1673.81c5.14-.17,12.29-1.95,14.36,3.08-4.32.32-10.03,1.3-13.74-.63l-.62-2.45Z"/>
  <path class="st1" d="M419.16,267.63c4.14-.24,9.9-1.2,13.38.52l.76,2.45c-4.81.3-12.85,2.3-14.14-2.98h0Z"/>
  <path class="st2" d="M550.38,1673.87c4.47-.07,9.14-.52,13.31.8l1.02,2.16c-3.99.37-11.13,1.54-14.23-.6l-.11-2.35h0Z"/>
  <path class="st2" d="M937.21,267.51c3.69-.4,10.19-1.67,13.18.29l.21,2.56c-3.87.03-9.44.87-12.47-.43l-.92-2.43h0Z"/>
  <path class="st1" d="M497.45,267.48c5.57-.5,11.77-2.62,13.5,3.23-5.42.19-11.47,2.08-13.5-3.23Z"/>
  <path class="st1" d="M211.02,267.61c5.86-.04,11.99-2.38,14.61,3.07-4.29.23-10.38,1.11-14.07-.77l-.54-2.3h0Z"/>
  <path class="st1" d="M1456.58,267.58c5.47-.49,11.34-2.24,14.74,2.4-5.65,1.68-10.82,2.24-14.74-2.4Z"/>
  <path class="st2" d="M1038.86,1674.73c3.97-.44,11.11-1.76,14.18.45l.03,2.4c-4.82.05-11.86,1.44-14.21-2.85h0Z"/>
  <path class="st1" d="M471.59,267.6c4.06-.25,9.96-1.17,13.44.43l.7,2.58c-4.06.12-10.14.91-13.54-.73l-.6-2.29h0Z"/>
  <path class="st2" d="M1327.29,1673.78c5.62-.24,11.69-2.14,14.1,3.31-4.06.11-9.84.83-13.3-.79l-.8-2.52h0Z"/>
  <path class="st2" d="M576.76,1673.92c3.96-.13,9.92-.92,13.23.61l.86,2.37c-4.07.23-10.15,1.12-13.69-.46l-.39-2.52h0Z"/>
  <path class="st1" d="M1301.65,267.47c4.62-.31,9.6-1.25,13.65.69l.81,2.45c-5.78-.02-11.91,2.09-14.46-3.15h0Z"/>
  <path class="st2" d="M237.21,1673.89c5.46-.38,11.49-2.18,14.67,2.48-5.54,1.12-11.82,2.77-14.67-2.48Z"/>
  <path class="st1" d="M575.7,267.58c5.1-.65,11.9-2.3,14.61,2.39-5.33,1.47-11.11,2.19-14.61-2.39Z"/>
  <path class="st1" d="M1118.59,267.61c5.09-.91,11.95-2.09,15.47,1.96-4.97,1.57-11.85,2.21-15.47-1.96Z"/>
  <path class="st1" d="M757.28,267.59c4.31-.25,9.42-1.17,13.17.32l.82,2.71c-4.42.12-9.35.92-13.12-.69l-.86-2.34h-.01Z"/>
  <path class="st2" d="M680.53,1674.82c5.31-1.3,12.11-2.62,15.79,1.87-5.37.99-11.65,1.97-15.79-1.87Z"/>
  <path class="st1" d="M237.26,267.62c5.72-.2,11.65-2.36,13.89,3.18-3.71.16-10.43,1.01-13.38-.87l-.52-2.31h.01Z"/>
  <path class="st2" d="M707.91,1673.92c5.67-.22,11.57-2.37,13.83,3.08-4.04.16-9.93.95-13.39-.54l-.44-2.54h0Z"/>
  <path class="st1" d="M886.44,267.58c4.07-.13,10.39-.91,13.84.75l.68,2.26c-5.44.33-12.28,2.29-14.53-3.01h.01Z"/>
  <path class="st1" d="M1431.54,267.56c4.13-.27,9.88-1.15,13.47.54l.58,2.39c-4.07.17-9.99,1.03-13.41-.65l-.65-2.28h.01Z"/>
  <path class="st2" d="M1352.81,1673.79c4.53-.19,9.22-.79,13.46.52l1.17,2.53c-4.27.23-10.32,1.11-13.99-.82l-.65-2.23h.01Z"/>
  <path class="st1" d="M1067,267.58c4.95-.58,11.96-1.97,15.09,2.13-5.33,1.42-11.62,2.55-15.09-2.13Z"/>
  <path class="st2" d="M1169.16,1674.76c5.02-1.2,13.01-1.95,16.68,2.02-5.49.68-12.63,1.92-16.68-2.02Z"/>
  <path class="st2" d="M602.38,267.46c4.08-.21,9.47-1.02,12.98.65l.83,2.45c-5.65.24-11.52,2.34-13.8-3.1h-.01Z"/>
  <path class="st2" d="M1640.66,1673.78c5.43-.31,11.79-2.26,13.87,3.15-4.18.11-9.52.89-13.05-.65l-.82-2.5Z"/>
  <path class="st2" d="M1143.28,1674.75c4.88-.4,10.4-1.19,15.04.16l1.11,2.13c-4.83.34-13.68,2-16.14-2.29h-.01Z"/>
  <path class="st1" d="M705.41,267.49c5-.39,12.23-2.53,13.37,2.97-4.17.32-8.54,1.15-12.3-.27l-1.07-2.7Z"/>
  <path class="st1" d="M1561.71,267.58c4.29-.1,9.41-.9,13.09.59l1,2.47c-3.99.2-10.24,1.05-13.59-.68l-.5-2.38Z"/>
  <path class="st1" d="M314.97,267.59c4.31-.08,9.28-.89,12.96.6l1.02,2.58c-4.1.13-9.87.89-13.34-.82l-.64-2.36h0Z"/>
  <path class="st2" d="M367.45,1673.84c5.72-.13,11.58-2.09,14,3.29-4.01.07-9.96.73-13.35-.83l-.65-2.46h0Z"/>
  <path class="st2" d="M289.34,1673.75c4.05-.28,9.27-1.23,12.66.68l.65,2.42c-3.94.21-8.99.98-12.37-.56l-.94-2.54Z"/>
  <path class="st2" d="M1509.29,1673.77c4.01-.19,10.12-.96,13.47.9l.41,2.02c-4.08.26-9.75,1.21-13.2-.45l-.68-2.47h0Z"/>
  <path class="st2" d="M1694.85,1673.93c3.48-.22,8.15-.71,11.25.89l.08,1.33-1.87.83c-4.5.11-6.94.43-11.36-.75l-.38-1.27,2.29-1.04h-.01Z"/>
  <path class="st1" d="M860.39,267.52c4.36-.26,8.95-1.1,12.78.45l.91,2.66c-5.22.16-11.81,2.02-13.69-3.11h0Z"/>
  <path class="st1" d="M1197.71,267.56c4.44-.4,9.19-1.41,13.12.33l.83,2.81c-4.8-.02-11.66,1.23-13.94-3.14h-.01Z"/>
  <path class="st2" d="M340.98,1673.8c4.19-.13,9.04-.84,12.78.56l1.13,2.48c-4.23.25-9.33,1.12-13.04-.55l-.86-2.49h-.01Z"/>
  <path class="st2" d="M759.31,1674.77c5.39-.96,11.91-1.92,16.02,2.01-5.53,1.02-11.87,2.09-16.02-2.01Z"/>
  <path class="st1" d="M1249.35,267.49c4.23-.3,9.29-1.17,13.04.43l.81,2.66c-5.13,0-11.7,1.83-13.85-3.09h0Z"/>
  <path class="st2" d="M1249.49,1673.85c4.15-.16,8.95-1.05,12.37.58l.89,2.65c-4.19.19-8.79.87-12.5-.68l-.77-2.55h.01Z"/>
  <path class="st2" d="M1535.62,1673.86l5.62-.26c3.23-.16,4.46-.6,7.4.82l.62,2.34c-4.01.17-9.72,1.07-13.03-.5l-.6-2.4h-.01Z"/>
  <path class="st1" d="M1665.82,267.51c4.37-.24,8.85-1.08,12.79.41l.67,2.52c-4.02.16-9.45,1.06-12.73-.57l-.73-2.36h0Z"/>
  <path class="st2" d="M836.56,1674.76c5.36-.5,12.73-2.55,15.44,2.5-4.86.12-9.85.58-14.5-.55l-.93-1.95h-.01Z"/>
  <path class="st1" d="M506.98,1673.87c1.94-.06,1.76.06,3.7.48l.14,1.22c-3.36,2.33-5.13,1.77-9.49,1.65l-3.09-.46-.35-1.24c3.54-1.98,4.86-1.62,9.09-1.65h0Z"/>
  <path class="st2" d="M665.16,1673.86c1.96.06,1.49.11,3.44.85l-.29,1.18c-3.47,1.88-5.36,1.43-9.47,1.36-1.31.03-1.89-.25-3.2-.57l.04-1.12c3.71-2.11,5.01-1.72,9.49-1.7h-.01Z"/>
  <path class="st2" d="M522.91,1674.7c5.02-.66,12.48-2.71,14.97,2.29-5.02.28-12.02,1.92-14.97-2.29Z"/>
  <path class="st1" d="M1015.36,267.62c5.63-.65,11.73-2.39,14.73,2.84-5.56.24-10.89,1.43-14.73-2.84Z"/>
  <path class="st2" d="M862.65,1674.82c5.13-.75,11.96-2.21,15.47,1.89-5.23,1.03-11.75,2.23-15.47-1.89Z"/>
  <path class="st2" d="M1598.03,1673.89c1.39-.04,2.11.2,3.5.44l.18,1.13c-3.52,2.17-4.77,1.75-9.13,1.71-2.18-.03-1.89-.09-4.07-.64l-.12-1c3.82-2.1,5.08-1.7,9.65-1.64h-.01Z"/>
  <path class="st1" d="M288.86,267.67c4.14-.3,8.67-1.03,12.51.17l1.23,2.5c-4.48.42-8.14,1.19-12.39-.08l-1.34-2.58h-.01Z"/>
  <path class="st2" d="M1274.35,1674.82c5.72-.98,11.56-2.46,15.75,1.95-6.61.64-10.71,1.91-15.75-1.95Z"/>
  <path class="st2" d="M186.54,1673.76c4.18-.11,8.8-.81,12.51.68l1.01,2.41c-4.18.2-9.09,1.02-12.67-.56l-.85-2.53h0Z"/>
  <path class="st1" d="M989,267.62c3.84-.43,10.42-1.75,13.38.44l.12,2.46c-3.96-.05-9.12.21-12.75-1l-.75-1.9Z"/>
  <path class="st1" d="M654.41,267.7c5.12-.3,11.68-2.4,13.12,2.9-3.87.21-9.31,1.02-12.56-.53l-.55-2.37h-.01Z"/>
  <path class="st2" d="M1223.62,1673.84c4.94,0,11.33-1.35,13.63,3.19-3.6.15-10.72.99-13.6-.83l-.03-2.36Z"/>
  <path class="st1" d="M808.07,267.59c.87-.08,1.74-.15,2.61-.21,5.58-.42,8.64-1.27,12.66,2.17-5.83,1.24-11.15,2.7-15.27-1.96h0Z"/>
  <path class="st1" d="M1588.05,267.66c3.62-.23,10.57-1.21,13.51.53l.38,2.34c-3.94.03-9.97.49-13.42-.84l-.48-2.04h.01Z"/>
  <path class="st1" d="M1405.27,267.62c4.18-.26,9.26-1.16,12.92.29l1.01,2.66c-4.07.02-9.55.43-13.2-.92l-.73-2.02h0Z"/>
  <path class="st2" d="M1409.75,1673.92c4.13-.22,5.06-.56,8.66,1.08l-.36,1.27-3.13.83c-3.97.2-6.25.69-9.56-1.6l.73-1.1,3.66-.47h0Z"/>
  <path class="st2" d="M962.05,267.65c5.49-.57,10.73-2.12,14.85,1.93-5.25,1.06-11.1,2.26-14.85-1.93Z"/>
  <path class="st1" d="M604.44,1673.89c3.57-.03,8.68-.48,11.75.9l.75,2.02c-4.2.39-9.25,1.41-12.71-.64l.21-2.28Z"/>
  <path class="st2" d="M1456.52,1674.8c5.03-1.26,11.55-2.18,15.14,1.94-6.16.57-10.59,1.83-15.14-1.94Z"/>
  <path class="st1" d="M1719.49,267.65c3.95-.24,8.43-1.03,11.63.77l.11,2.38c-3.58.04-9.55.72-12.09-1.19l.36-1.96h-.01Z"/>
  <path class="st2" d="M1064.81,1674.72c5.17-.94,11.19-2.02,14.92,2.03-5.78.65-10.4,2.15-14.92-2.03Z"/>
  <path class="st2" d="M443.97,1674.82c5.28-.94,11.59-2.48,15.18,1.86-6.19.57-10.6,1.85-15.18-1.86Z"/>
  <path class="st2" d="M314.83,1674.79c5.12-1.08,10.79-2.42,14.66,1.49-5.32,1.36-10.32,2.06-14.66-1.49Z"/>
  <path class="st2" d="M1718.3,1674.81c5.21-1.05,11.2-2.37,14.88,1.88-5.52.56-10.58,1.96-14.88-1.88Z"/>
  <path class="st2" d="M470.72,1674.81c5.66-1.09,10.91-2.46,14.9,1.91-5.27.41-11.05,1.9-14.9-1.91Z"/>
  <path class="st2" d="M187.07,267.53c3.85-.16,7.98-.77,11.45.67l1.06,2.61c-5.26.23-10.38,1.9-12.51-3.27h0Z"/>
  <path class="st2" d="M914.59,1674.82c5.72-.66,10.34-2.22,14.75,1.92-5.79.66-10.11,2.1-14.75-1.92Z"/>
  <path class="st2" d="M1431.48,1674.81c5.49-.96,10.12-2.14,14.26,1.96-5.38.56-10.15,1.98-14.26-1.96Z"/>
  <path class="st2" d="M785.47,1674.75c5.53-.52,10.36-1.42,14.7,2.03-5.62.62-10.39,2.03-14.7-2.03Z"/>
  <path class="st2" d="M960.89,1674.83c5.63-.69,9.16-1.98,13.49,1.93-5.52.72-9.52,2.21-13.49-1.93Z"/>
  <path class="st2" d="M1091.24,1674.74c4.92-.28,9.43-.21,13.86,2.02-5.5,1.27-9.88,2.32-13.86-2.02Z"/>
</svg>