<?xml version="1.0" encoding="UTF-8"?>
<svg id="Layer_1" xmlns="http://www.w3.org/2000/svg" version="1.1" xmlns:xlink="http://www.w3.org/1999/xlink" viewBox="0 0 1920 1920">
  <!-- Generator: Adobe Illustrator 30.3.0, SVG Export Plug-In . SVG Version: 2.1.3 Build 182)  -->
  <defs>
    <style>
      .st0 {
        fill: #2b2b2a;
      }

      .st1 {
        fill: #1d1b1c;
      }

      .st2 {
        fill: #fdfdfc;
      }

      .st3 {
        fill: url(#linear-gradient);
      }
    </style>
    <linearGradient id="linear-gradient" x1="1023.14" y1="-869.49" x2="1046.12" y2="-880.25" gradientTransform="translate(93.1 1517.1) scale(.94)" gradientUnits="userSpaceOnUse">
      <stop offset="0" stop-color="#242328"/>
      <stop offset="1" stop-color="#393938"/>
    </linearGradient>
  </defs>
  <path class="st2" d="M839.5,736.45c-16.38-20.36-15.75-45.58-7.65-69.33,16.58-48.59,55-90.69,99.53-115.28,52.89-29.21,117.98-19.15,144.87,38.8,16.4,35.39,16.03,65.42,3.65,102.15,13.23,24.08,14.96,50.76,14.3,77.76-.78,31.18-10.55,56.36-28.02,81.75,6.54,24.12,5.4,39.68.5,64.33-8.27,41.57-29.4,76.58-54.35,110.04-7.78,10.43-16.83,21.17-24.03,31.87l-.61.93c7.71,7.28,14.62,17.9,15.3,28.65,2.62,40.93,2.78,54.87-40.19,60.83-2.64,17.07-.28,51.7-7.12,65.62-1.31,2.67-3.3,5.27-6.4,5.92-2.18.45-4.44-.23-6.2-1.57-12.26-9.28-6.01-72.21-11.65-88.09-.84-2.36-1.68-2.44-3.81-3.33l-1.44.75c-1.52,3.96-.84,8.7-.64,13.1-26.84-2.58-28.07-10.57-26.04-33.79,2.89-33.13,7.5-34.91,31.9-54.39.63-8.66-.65-29.85-1.23-39.44-3.33-55.74-5.86-102.12,25.27-151.91,6.02,2.52,15.48,7.47,19.38.29l-.61-1.92c-3.6-2.93-11.03-2.76-12.63-3.99-32.17-24.91-29.87-81.09-26.71-117.83.46-5.29,6.61-28.69,6.51-28.89-5.54-11.12-11.67-19.19-16.57-30.82-4.3,12.68,8.16,16.67,4.89,25.25,2.16,3.01,4.88,5.95,7.34,8.75-4.17,6.87-6.52,13.62-8.33,21.42-9.82,41.91-2.55,86.01,20.2,122.55-5.93,14.81-13.04,23.97-18.65,41.15-15.64,47.94-7.39,102.04-5.68,152.07-30.07,22.34-30.15,31.88-32.89,68.03-1.81,23.85,14.89,28.64,34.41,29.88.88,19.25,2,54.27,7.97,72.68,2.93,9.03,24.15,10.12,27.88-1.07,6.25-18.77,5.22-43.76,8.4-63.39l.21-1.21c18.18-4.09,36.38-8.12,38.65-30.79,2.57-25.54,3.37-44.63-12.4-66.04,15.14-17.45,38.72-50.06,48.9-70.72,20.76,48.54,21.18,97.17-17.34,136.2.4,59.63,4.3,120.22-5.74,179.53-4.22,21.43-4.07,34.27.92,55.32,17.83,75.38,9.05,154.62,11.02,231.41.31,12.11.43,27.24-.69,39.14-.49,5.57-1.92,11.02-4.26,16.1-7.07,15.48-18.46,23.64-33.82,29.57,2.26,2.94,4.89.94,6.08,2.77-7.79-.16-28.58.25-34.71-.67-13.28-3.71-25.91-12.37-33.65-23.87-11.28-16.76-8.95-41.76-9.09-61.29-.13-18.03-.39-36.07-.78-54.08-1.09-56.63-5.29-113.14-12.59-169.29-1.13-8.15-3.28-25.14-6.14-32.46-4.43-10.9-10.04-21.32-13.48-32.62-23.66-77.6-25.9-158.46-26.69-238.93-.67-32.17.7-65-4.36-96.83-7.65-48.13-13.07-96.31-15.97-144.95-.52-6.03-4.37-12.77-5.1-18.61-2.59-20.74-3.85-46.73.18-67.23v.02Z"/>
  <path class="st0" d="M925.38,698.62c-7.19,27.71-43.97,44.03-70.47,40.85.05-1.52.26-2.89.44-4.4,1.45-1.33,27.61-5.92,34.85-8.84,16.51-6.65,22.53-19.99,35.18-27.62h0Z"/>
  <path class="st1" d="M925.38,698.62c-2.47-4.57-7.51-15.15-5.44-20.1,2.99-1.17,1.42-1.03,4.88.15-4.3,12.68,8.16,16.67,4.89,25.25l-4.33-5.29h0Z"/>
  <path class="st0" d="M876.14,694.56c3.97-.09,4.78.27,7.32,2.47.91,8.44-9.52,13.27-16.21,15.48-3.03-.29-3.24-.71-5.78-2.33-2.88-7.3,9.21-13.06,14.68-15.62h0Z"/>
  <path class="st3" d="M1070.92,686.11l2.9,1.43.64,1.95c-2.91,7.5-13.34,13.31-20.36,16.79-3.01-1.15-1.8-.24-3.72-2.86.88-4.23,15.85-13.66,20.55-17.31h-.01Z"/>
  <path class="st2" d="M950.58,275.11c66.53-5.3,124.75,44.3,130.1,110.82,5.33,66.52-44.23,124.78-110.75,130.16-66.57,5.39-124.89-44.24-130.24-110.81s44.31-124.86,110.89-130.17h0Z"/>
  <path class="st2" d="M1041.88,268.38c4.35-.41,7.63-1.01,11.91-.17,2.58,1.93,1.65.63,2.2,4.45-5.94.06-11.92,1.71-14.11-4.28Z"/>
  <path class="st2" d="M1353.66,268.36c6.13-.49,12.39-2.56,14.98,3.62-5.6.24-12.97,2.15-14.98-3.62Z"/>
  <path class="st2" d="M861.52,268.43c4.08-.31,10.22-1.38,13.41.93l.38,2.91c-5.45.34-12.1,2.05-13.79-3.84Z"/>
  <path class="st2" d="M628.03,268.42c5.72-.43,13-2.59,15.03,3.36-4.67.25-10.06,1.14-14.14-.77l-.88-2.6h-.01Z"/>
  <path class="st2" d="M1067.93,268.53c6.24-.49,11.31-2.29,15.22,2.99-5.97.81-12.35,2.97-15.22-2.99Z"/>
  <path class="st2" d="M1094.45,268.34c5.81-.55,12.38-2.66,14.51,3.5-5.74.22-12.13,2.12-14.51-3.5Z"/>
  <path class="st2" d="M1562.01,268.46c5.83-.25,11.85-2.08,14.56,3.4-4.7.39-10.05,1.39-14.1-.86l-.46-2.54h0Z"/>
  <path class="st2" d="M1224.22,268.51c5.87-.54,11.68-2.31,14.97,2.95-5.77,1.15-11.89,2.59-14.97-2.95Z"/>
  <path class="st2" d="M1587.99,268.45c5.95-.39,12.55-2.47,15.03,3.45-4.4.14-10.55.91-14.3-1.05l-.73-2.4h0Z"/>
  <path class="st2" d="M1457.63,268.36c4.42-.32,9.74-1.33,13.09,1.21l.06,2.73c-5.69.15-11.19,1.82-13.14-3.94h-.01Z"/>
  <path class="st2" d="M522.29,268.48c5.4-.63,12.01-1.96,15.39,2.6-5.45,1.46-12.26,2.73-15.39-2.6Z"/>
  <path class="st2" d="M628.22,1674.78c6.2-.49,11.66-2.37,15.34,3.01-5.78.76-12.55,2.6-15.34-3.01Z"/>
  <path class="st2" d="M392.52,268.34c5.89-.41,12.21-2.43,14.3,3.63-5.56.21-12.38,2.08-14.3-3.63Z"/>
  <path class="st2" d="M263.21,268.44c5.46-.38,12.36-2.31,14.61,3.25-4.62.39-9.7,1.33-13.81-.74l-.8-2.51Z"/>
  <path class="st2" d="M783.78,268.43c5.72-.41,12.33-2.47,13.42,4.08-5.46-.07-11.83,1.46-13.42-4.08Z"/>
  <path class="st2" d="M289.22,268.44c5.58-.39,11.65-2.46,13.76,3.17-4.33.51-9.26,1.63-13.04-.42l-.72-2.76h0Z"/>
  <path class="st2" d="M1198.78,268.39c6.24-.56,11.41-2.53,14.12,3.6-5.67.19-11.91,2-14.12-3.6Z"/>
  <path class="st2" d="M1535.83,268.5c5.71-.41,11.81-2.33,14.43,3.23-4.24.34-10.29,1.37-13.87-.77l-.56-2.45h0Z"/>
  <path class="st2" d="M1482.94,268.53c6.22-.59,11.74-2.29,15.48,2.97-6.02.73-12.23,2.49-15.48-2.97Z"/>
  <path class="st2" d="M214.25,268.54c3.31-.12,8.47-.45,11.08,1.67l-.15,1.14-2.29,1.21c-3.43.09-8.61.31-11.34-1.93l.41-1.33,2.29-.76h0Z"/>
  <path class="st2" d="M1276.86,268.54c5.97-.54,11.55-2.11,15.16,2.97-5.66.92-12.12,2.4-15.16-2.97Z"/>
  <path class="st2" d="M732.1,268.4c5.24-.4,12.52-2.4,14.23,3.23-5.42.47-12.2,2.42-14.23-3.23Z"/>
  <path class="st2" d="M1015.93,268.44c4.36-.27,9.57-1.08,13.45.66l.9,2.48c-4.55.43-9.39,1.39-13.47-.52l-.88-2.62h0Z"/>
  <path class="st2" d="M679.69,268.51c5.76-.65,11.52-2.33,14.83,2.88-5.69,1.01-11.63,2.49-14.83-2.88Z"/>
  <path class="st2" d="M989.38,268.49c5.74-.54,11.91-2.65,14.29,3.13-5.13.36-12.41,2.27-14.29-3.13Z"/>
  <path class="st2" d="M1509.53,268.53c5.86-.71,11.55-2.42,14.72,2.97-5.62.82-11.94,2.41-14.72-2.97Z"/>
  <path class="st2" d="M1303.12,268.51c4.94-.46,12.14-1.87,14.35,3.11-5.46,1.33-11.57,2.32-14.35-3.11Z"/>
  <path class="st2" d="M1353.47,1674.66c4.43-.23,9.6-1.03,13.55.59l1.06,2.64c-5.43.34-12.66,2.34-14.61-3.23h0Z"/>
  <path class="st2" d="M1120.6,268.28c4.42-.26,9.4-1.15,13.17.88l.73,2.5c-6,.59-11.37,2.57-13.9-3.38Z"/>
  <path class="st2" d="M1251.05,268.39c5.63-.45,11.69-2.47,13.89,3.22-5.72.5-11.6,2.53-13.89-3.22Z"/>
  <path class="st2" d="M1172.88,268.5c5.69-.59,10.91-1.66,14.68,2.9-5.89,1.01-11.83,3.04-14.68-2.9Z"/>
  <path class="st2" d="M757.79,268.36c5.65-.34,11.9-2.27,14.34,3.25-5.8.48-11.79,2.49-14.34-3.25Z"/>
  <path class="st2" d="M549.52,268.44c5.09-.45,12.2-2.39,14.04,3.18-5.26.41-12.41,2.45-14.04-3.18Z"/>
  <path class="st2" d="M237.57,268.49c6.2-.45,12.07-2.62,13.24,4.17-4.26-.13-8.44.18-12.23-1.5l-1.01-2.67h0Z"/>
  <path class="st2" d="M342.28,268.58c4.12-.21,9.35-1.1,12.6,1.12l.18,2.39c-2.26.08-4.52.14-6.78.16-3.33,0-4.97.23-6.95-1.75l.94-1.93h.01Z"/>
  <path class="st2" d="M575.9,268.38c5.55-.38,11.94-2.31,14.25,3.23-5.85.49-11.71,2.5-14.25-3.23Z"/>
  <path class="st2" d="M418.98,268.45c4.9-.28,12.07-1.86,14.35,3.12-4.73.49-9.55,1.56-13.69-.68l-.67-2.44h.01Z"/>
  <path class="st2" d="M444.8,268.37c4.47-.25,9.05-1.03,13.07.56l1.1,2.66c-5.74.47-11.85,2.54-14.16-3.21h-.01Z"/>
  <path class="st2" d="M1406.22,268.45c5.76-.33,11.28-2.3,13.68,3.21-4.34.5-9.12,1.54-12.91-.54l-.77-2.66h0Z"/>
  <path class="st2" d="M1640.49,268.45l3.86-.24c5.5-.35,7.73-1.59,10.12,3.57-4.43.25-9.46,1.13-13.27-.85l-.71-2.49h0Z"/>
  <path class="st2" d="M1147.04,268.4c5.4-.3,11.75-2.16,13.98,3.23-5.61.57-11.75,2.58-13.98-3.23Z"/>
  <path class="st2" d="M835.28,268.36c5.57-.38,11.63-2.19,13.94,3.44-4.44.21-9.24,1-13.09-.85l-.85-2.58h0Z"/>
  <path class="st2" d="M809.4,268.3c5.61-.38,11.49-2.26,13.63,3.46-6.1.32-11.29,2.56-13.63-3.46Z"/>
  <path class="st2" d="M940.84,1674.78c3.54-.3,9.57-1.57,11.76,1.43l-1.18,2.04c-4.19.1-7.32.44-11.4-.58l-.53-1.37,1.36-1.53h0Z"/>
  <path class="st2" d="M705.79,268.51c5.69-.58,11.18-2.36,14.07,2.98-5.75.83-11.13,2.44-14.07-2.98Z"/>
  <path class="st2" d="M471.55,268.49c1.72-.09,3.44-.17,5.16-.24,4.73-.23,6.75-1.26,8.69,3.39-4.21.36-9.55,1.4-13.16-.44l-.69-2.71h0Z"/>
  <path class="st2" d="M1667.04,1674.82c6.01-.47,11.31-2.33,14.62,2.94-4.22.67-9.28,1.1-13.34-.29l-1.28-2.65h0Z"/>
  <path class="st2" d="M1093.87,1674.68c6.06-.41,11.53-2.56,14.02,3.25-4.27.16-9.38.94-13.07-.61l-.96-2.64h0Z"/>
  <path class="st2" d="M1617.34,268.59c3.43-.21,7.57-.68,10.49,1.08l-.05,1.34-2.03,1.34c-4.2-.08-7.16.05-11.08-1.57v-1.19l2.66-1h.01Z"/>
  <path class="st2" d="M367.31,268.48c5.58-.34,11.37-2.26,13.86,3.17-4.49.34-9.05,1.15-13.11-.52l-.75-2.66h0Z"/>
  <path class="st2" d="M1666.88,268.45c5.87-.42,11.31-2.47,13.71,3.21-4.27.3-9.16,1.11-12.94-.6l-.77-2.6h0Z"/>
  <path class="st2" d="M602.49,268.43c1.35-.07,2.69-.12,4.04-.17,3.69-.17,5.35-.64,8.77.83l.97,2.55c-4.47.4-8.84,1.19-12.89-.55l-.89-2.66h0Z"/>
  <path class="st2" d="M1616.24,1674.89c3.76-.35,9.49-1.77,11.8,1.33l-.78,1.98c-3.56.12-9.83,1.03-12.33-1.45l1.3-1.86h0Z"/>
  <path class="st2" d="M497.82,268.4c4.42-.32,8.72-1.31,12.09,1.14l.06,2.98c-5.48-.21-10.6,1.38-12.15-4.12h0Z"/>
  <path class="st2" d="M1719.3,268.46c4.27-.27,9.45-1.12,13.15.68l.69,2.44c-4.42.31-9.37,1.23-13.16-.76l-.68-2.36h0Z"/>
  <path class="st2" d="M1692.95,268.43c4.58-.27,9.05-1.09,13.12.69l.97,2.58c-5.15.27-12.24,2.14-14.08-3.26h-.01Z"/>
  <path class="st2" d="M1329.98,268.44c3.87-.21,9.6-1.46,11.67,2l-.77,2.03c-3.48.02-8.65.58-11.18-1.58l.27-2.46h.01Z"/>
  <path class="st2" d="M1380.25,268.38c1.63-.08,3.26-.14,4.9-.2,4.76-.2,6.76-1.21,8.68,3.47-5.71.57-11.46,2.62-13.58-3.27h0Z"/>
  <path class="st2" d="M211.25,1674.74c4.35-.23,9.18-1.1,13,.42l1.07,2.7c-4.31.24-9.13.98-13.02-.49l-1.05-2.63Z"/>
  <path class="st2" d="M680.15,1674.66c5.37-.37,11.9-2.32,13.9,3.22-5.62.29-11.63,2.26-13.9-3.22Z"/>
  <path class="st2" d="M392.79,1674.65c5.72-.26,11.52-2.1,14,3.45-5.52.19-12.06,2.04-14-3.45Z"/>
  <path class="st2" d="M1458.03,1674.75c6.15-.18,11.24-2.32,13.82,3.53-4.37.06-9.14.79-12.87-.84l-.95-2.68h0Z"/>
  <path class="st2" d="M1146.43,1674.71c5.42-.24,11.53-1.93,14.02,3.31-4.23.19-9.65,1-13.33-.63l-.68-2.68h-.01Z"/>
  <path class="st2" d="M784.48,1674.77c5.91-.51,11.08-2.22,14.39,3.01-5.8.67-11.24,2.24-14.39-3.01Z"/>
  <path class="st2" d="M1120.35,1674.7c6.06-.37,11.05-2.35,13.84,3.3-4.05.18-9.66,1-13.08-.79l-.76-2.51Z"/>
  <path class="st2" d="M576.16,1674.68c5.35-.32,11.84-2.26,13.82,3.2-4.32.25-9.02,1.02-12.86-.51l-.96-2.69Z"/>
  <path class="st2" d="M810.67,1674.75c5.35-.29,11.73-2.29,13.69,3.1-1.34.09-2.68.18-4.02.25-3.94.26-5.32.77-8.84-.71l-.83-2.64h0Z"/>
  <path class="st2" d="M732.98,1674.67c6.04-.32,11.32-2.38,13.95,3.22l-4.89.21c-3.51.16-4.87.62-8.11-.84l-.95-2.58h0Z"/>
  <path class="st2" d="M263.5,1674.79c5.38-.46,10.94-2.11,14.41,2.36-4.41,1.25-8.61,1.54-13,.25l-1.41-2.62h0Z"/>
  <path class="st2" d="M887.9,268.51c5.23-.08,11-1.52,13.63,3.25-4.5.47-9.21,1.5-13.15-.58l-.47-2.66h-.01Z"/>
  <path class="st2" d="M1328.69,1674.8c6.15-.48,10.88-2.55,13.59,3.2-3.94.18-9.82,1.01-13.05-.83l-.54-2.36h0Z"/>
  <path class="st2" d="M1433.32,268.53c4.06-.19,8.74-1.02,11.92,1.15l.14,2.29c-3.39.17-10.79,1.31-12.76-1.47l.69-1.98h.01Z"/>
  <path class="st2" d="M523.31,1674.82c6.04-.43,11-2.46,13.72,3.19-3.9.18-9.87,1-13.12-.75l-.6-2.44Z"/>
  <path class="st2" d="M237.54,1674.67c6.25-.4,10.87-2.63,13.56,3.31-5.82.16-10.93,2.24-13.56-3.31Z"/>
  <path class="st2" d="M368.02,1674.82c4.33-.37,8.64-1.36,12.12.82l.22,2.58c-4.3.08-9.14.82-12.46-1.22l.11-2.18h.01Z"/>
  <path class="st2" d="M419.53,1674.8c3.91-.26,9.2-1.3,12.28.58l.1,2.69c-3.54.02-10.12.7-12.66-.95l.28-2.33h0Z"/>
  <path class="st2" d="M1510.04,1674.7c5.78-.3,11.52-2.37,13.95,3.13-4.22.23-9.39,1.06-13.09-.62l-.86-2.51Z"/>
  <path class="st2" d="M549.43,1674.72c4.09-.17,9.87-.96,13.35.81l.68,2.24c-4.22.25-9.57,1.1-13.23-.56l-.8-2.48h0Z"/>
  <path class="st2" d="M706.56,1674.65c5.59-.38,11.36-2.34,13.39,3.39-5.54.08-11.47,2.04-13.39-3.39Z"/>
  <path class="st2" d="M315.53,268.49c5.53-.3,11.49-2.27,13.65,3.15-5.24.5-11.44,2.14-13.65-3.15Z"/>
  <path class="st2" d="M471.44,1674.83c5.38-.24,11.51-2.25,13.61,2.98-4.08.23-9.55,1.1-13.06-.41l-.55-2.57Z"/>
  <path class="st2" d="M1483.56,1674.74c5.62-.22,11.4-2.16,13.85,3.15-4.29.3-8.95,1.03-12.79-.56l-1.06-2.59h0Z"/>
  <path class="st2" d="M1041.28,1675.65c5.03-.78,12.25-2.86,14.8,2.16-4.74.43-12.47,2.24-14.8-2.16Z"/>
  <path class="st2" d="M1641.48,1674.78c5.58-.19,11.17-2.27,13.32,3.09-4.05.32-9.13,1.19-12.67-.52l-.66-2.58h.01Z"/>
  <path class="st2" d="M1199.52,1674.82c4.31-.37,8.46-1.42,11.63.97l-.08,2.4c-4.1.08-9.39.88-12.15-1.45l.59-1.91h.01Z"/>
  <path class="st2" d="M937.37,268.58c5.45-.46,11.22-2.25,14.65,2.24-5.77,1.57-10.46,2.38-14.65-2.24Z"/>
  <path class="st2" d="M1536.67,1674.86c5.33-.37,11.32-2.36,13.33,3.03-4.05.22-9.38,1.05-12.84-.63l-.49-2.4Z"/>
  <path class="st2" d="M497.79,1674.83c5.39-.18,11.49-2.21,13.42,3.05-4.06.27-9.3,1.12-12.83-.53l-.59-2.51h0Z"/>
  <path class="st2" d="M1276.67,1674.77c5.93-.37,10.79-2.01,14.47,2.99-5.85.49-11.22,2.31-14.47-2.99Z"/>
  <path class="st2" d="M1172.49,1674.69c4.16-.21,9.01-.99,12.65.53l1.06,2.63c-5.2.24-11.59,1.98-13.71-3.16h0Z"/>
  <path class="st2" d="M1562.46,1674.73c5.52-.12,11.6-2.14,13.86,3.11-4.34.25-9.08,1.03-12.94-.47l-.92-2.64Z"/>
  <path class="st2" d="M1070.63,1674.83c3.58-.16,6.85-.39,10.16.95l.19,1.45-1.88.96c-4.67.08-6.65.36-10.99-1.15l-.12-1.28,2.63-.92h.01Z"/>
  <path class="st2" d="M1250.47,1674.74c4.03-.17,8.99-.98,12.43.52l1.02,2.6c-4.01.21-9.27.98-12.7-.67l-.75-2.45h0Z"/>
  <path class="st2" d="M836.45,1674.79c5.74-.51,10.97-2.44,13.84,2.94-5.6.4-10.71,2.09-13.84-2.94Z"/>
  <path class="st2" d="M863.13,1674.72c5.71-.33,11.24-2.32,13.35,3.36-5.29.08-11.38,1.8-13.35-3.36Z"/>
  <path class="st2" d="M1303.07,1674.8c5.29-.17,11.37-2.02,13.53,3.02-4.02.25-9.43,1.12-12.89-.48l-.64-2.54Z"/>
  <path class="st2" d="M1224.24,1674.71c5.46-.34,11.4-2.18,13.74,3.12-5.05.19-12,1.98-13.74-3.12Z"/>
  <path class="st2" d="M1698.14,1674.83c3.64-.33,6.05-.9,8.78,1.94l-.68,1.08-2.57.35c-4.19.15-6.23.6-9.72-1.75,1.61-2.03.57-1.18,4.19-1.61h0Z"/>
  <path class="st2" d="M888.9,1674.82c5.76-.41,10.35-2.04,13.83,2.92-4.54.38-8.28,1.13-12.52-.28l-1.3-2.64h-.01Z"/>
  <path class="st2" d="M655.42,268.58c4.38-.31,7.5-1.14,10.89,1.05l.14,2.57c-3.71-.01-9.57.61-11.89-1.72l.86-1.9Z"/>
  <path class="st2" d="M759.37,1674.81l4.68-.26c4.88-.3,6.69-1.44,8.37,3.46-4.04.07-9.18.83-12.47-.84l-.59-2.35h.01Z"/>
  <path class="st2" d="M912.85,268.48c5-.12,10.75-1.24,13.76,3.07-4.46.47-8.93,1.41-12.92-.54l-.84-2.53Z"/>
  <path class="st2" d="M289.47,1674.67c5.84-.43,10.61-2.36,13.14,3.23-3.95.07-9.06.79-12.32-.8l-.82-2.44h0Z"/>
  <path class="st2" d="M963.3,268.53c4.26-.22,8.26-1.1,12.02.51l.99,2.56c-4.22.3-8.56,1.07-12.27-.7l-.74-2.37Z"/>
  <path class="st2" d="M316.03,1674.81c5.2-.17,11.33-2.09,13.29,3.01-4.06.22-9.36,1.07-12.78-.69l-.51-2.32h0Z"/>
  <path class="st2" d="M341.72,1674.7c5.41-.11,10.97-1.86,13.39,3.29-4.21.2-8.65.86-12.43-.61l-.95-2.68h-.01Z"/>
  <path class="st2" d="M1721,1674.83c4.81-.1,10.65-1.58,12.75,2.98-3.79.37-9.74,1.52-12.81-.61l.06-2.37Z"/>
  <path class="st2" d="M186.53,1674.78c5.74-.43,9.96-2.05,13.36,2.94-5.65.53-10.53,2.38-13.36-2.94Z"/>
  <path class="st2" d="M1405.26,1675.72c5.01-1.22,11.3-2.16,14.78,1.98-5.5.55-10.63,2.07-14.78-1.98Z"/>
  <path class="st2" d="M1587.91,1675.72c5.17-.98,11.37-2.42,14.95,1.76-5.47.91-10.64,1.89-14.95-1.76Z"/>
  <path class="st2" d="M603.36,1674.66c4.64-.09,7.45-.46,11.89.94l1.04,2.21c-5.42.36-10.82,2.17-12.93-3.15h0Z"/>
  <path class="st2" d="M444.45,1675.76c5.29-1.21,10.53-2.52,14.04,1.93-5.19.54-10.2,1.98-14.04-1.93Z"/>
  <path class="st2" d="M914.15,1675.73c4.78-.96,10.62-2.19,14.29,1.32-2.54.83-5.19,1.24-7.85,1.24-4.12-.02-4.23-.38-6.44-2.56h0Z"/>
  <path class="st2" d="M1014.84,1675.72c4.79-.34,11.85-2.08,14.52,2.06-4.3.52-9.21.97-13.4-.03l-1.12-2.03h0Z"/>
  <path class="st2" d="M657.47,1674.84c3.77-.23,6.5-.67,9.46,1.63l-.33,1.11-1.79.56c-4.73.21-5.05.33-9.42-1.19l-.2-1.56,2.28-.55h0Z"/>
  <path class="st2" d="M1380.04,1675.77c5.39-1.13,10.1-2.49,13.84,1.93-5.07.46-9.95,1.72-13.84-1.93Z"/>
  <path class="st2" d="M1431.69,1675.72c5.37-.96,9.99-2.06,13.93,1.98-5.18.56-10.13,2.02-13.93-1.98Z"/>
</svg>