<?xml version="1.0" encoding="UTF-8"?>
<svg id="Layer_1" xmlns="http://www.w3.org/2000/svg" version="1.1" viewBox="0 0 1024 1024">
  <!-- Generator: Adobe Illustrator 30.3.0, SVG Export Plug-In . SVG Version: 2.1.3 Build 182)  -->
  <defs>
    <style>
      .st0 {
        fill: #fff;
      }
    </style>
  </defs>
  <path class="st0" d="M556.59,419.75c32.35-.34,57.26,2.95,79.66,29.25,13.82,16.01,20.61,36.9,18.84,57.98-3.14,38.47-27.38,54.39-52.4,79.3-9.72,9.68-20,20.42-30.37,29.28-4.27.21-9.01.23-13.3.18-29.88-.4-60.33.89-90.15-.21-7.54-5.51-21.69-21.91-30.19-29.09-26.38-.52-52.94-.05-79.32-.03-6.98-.14-13.13-4.3-10.54-12.04,2.72-8.14,12.57-5.49,19.23-5.94,3.19-.22,7.07,0,10.3,0l68.33-.12c7.42-.08,21.83,1.42,28.26-1.67,5.65-2.72,2.39-12.85-3.55-13.03-15.89-.47-31.94.14-47.87-.29-7.09-4.39-14.94-13.69-21.76-19.35-4.17-.23-8.65-.22-12.85-.28-23.29.32-46.98.1-70.28-.27-3.53-.41-6.51-4.39-6.67-7.6-.62-12.8,17.57-9.84,26.39-9.85h32.58c29.33-.02,61.07-.64,90.23.14,11.36,9.95,22.26,22.41,33.84,32,18,.34,36.85.07,54.92.09,3.67-3.24,10.61-10.45,14.36-14.18,6.06-6.02,17.38-16.05,22.16-22.43.07-5.62,2.22-23.04-4.75-23.59-7.97-.63-17.99-.16-26.2-.2l-59.75-.09c-14.05,0-28.21.31-42.22-.65-34.56-2.35-65.45-32.25-68.76-66.75,4.94-.54,14.32-.31,19.49-.31l34.14-.03,118.2-.24v.02Z"/>
  <path class="st0" d="M462.57,292.54c12.32-.33,25.83-.08,38.22-.1l65.99.06,59.05,58.51c9.17,9.1,18.47,18.01,27.48,27.28,4.36,4.49.42,13.79-4.55,14.23-8.1.72-17.04.4-25.23.39-15.98.07-31.95.01-47.93-.15-4.9-4.2-10.46-9.89-15.17-14.49-5.4-5.3-13.16-13.33-18.9-17.83-18.04-.31-36.63-.1-54.69,0-3.57,2.7-9.17,8.35-12.48,11.54-7.16,6.95-14.35,13.87-21.58,20.75-7.51.38-17.1.14-24.74.16-14.26.07-28.52.06-42.78-.02,1.23-29.07,22.13-46.85,41.47-65.43,11.99-11.52,23.65-23.57,35.82-34.9h.02Z"/>
  <path class="st0" d="M748.15,671.18h0c-10.06,1.18-17.79,5.84-18.2,16.75-1.11,29.68-4.18,45.74,31.18,43.52,18.75-3.27,17.09-15.57,17.48-30.58.63-24.21-5.79-31.33-30.46-29.69ZM758.87,719.91c-19.92,2.49-15.92-9.05-16.4-24.47-.18-5.84.6-10.58,6.64-12.35h0c15.78-.99,16.1,2.07,16.3,17.84.1,7.03,1.3,16.02-6.54,18.98Z"/>
  <path class="st0" d="M649.72,292.49c15.76-2.77,30.77,7.84,33.42,23.62,2.65,15.79-8.05,30.71-23.86,33.25-15.65,2.51-30.39-8.06-33.02-23.69-2.62-15.63,7.85-30.44,23.46-33.18Z"/>
  <path class="st0" d="M665.18,709.33c4.46-2.41,8.15-4.86,9.55-10.26,2.45-9.46.69-24.98-11.17-26.99-9.48-1.6-21.29-.95-31.18-.86h0c-.63.15-1.7.18-2.08.75-1.1,1.65-.78,53.12-.26,59.22,18.13,1.09,12.61-3.42,13.02-19.47,2.92-.01,5.87-.07,8.78.08,4.04,6.34,7.65,12.96,11.31,19.53,3.24.12,10.65.77,13.12-.73-.12-3.28-8.96-17.08-11.1-21.27ZM659.58,699.09c-4.14,1.7-11.85,1.13-16.58,1.06-.07-3-.76-15.27.7-16.92h0c3.91-.1,13.05-1.09,16.14,1.14,4.29,3.1,2.4,11.01-.26,14.72Z"/>
  <path class="st0" d="M452.55,675.54c-4.64-5.93-30.93-4.28-39.08-4.02h0c-1.17,5.11-.85,53.26-.26,59.82,4.29.21,8.31,1.03,11.8-1.12,2.25-2.91.97-12.34,1.22-17.21,4.08-.1,8.47-.13,12.52-.36,21.72-.97,25.04-22.74,13.8-37.11ZM445.26,692.34c-.41,3.54-.15,4.3-2.09,7.6-4.51,1.84-11.92,1.26-16.99,1.18-.12-3.41-.73-15.41.33-17.89h0c8.1-.13,20.15-2.95,18.75,9.11Z"/>
  <path class="st0" d="M387.66,671.56c-4.93-.41-8.7-.37-13.61-.31h-.01c-1.45.16-2.89-.03-3.92,1.16-1.56,1.83-18.39,55.55-17.95,57.53.14.62.64.76,1.18.98,2.9,1.18,7.61.53,10.69.46,1.85-3.81,3.17-8.44,4.47-12.53l15.2.16,6.23-.04c1.23,4.36,2.28,8.15,3.87,12.41,3.54.13,9.28.85,11.97-1.04.71-3.64-15.4-53.5-18.12-58.78ZM380.63,707.58l-8.71-.11c1.95-7.4,4.6-15.33,6.91-22.68,0,0,0,0,0-.01h.01s0,.01,0,.01c1.97,1.93,6.42,18.57,7.69,22.71l-5.89.08Z"/>
  <path class="st0" d="M335.25,671.25c3.87-.08,5.97-.12,9.78.35.16,10.86.04,21.98.08,32.87.03,8.5.27,18.39-.25,26.79-4.07.41-8.64.25-12.72,0-.48-7.15-.25-16.41-.24-23.72-6.84-.28-13.69-.35-20.54-.21-.11,6.21.64,16.35-.53,22.64-.21,1.15-1.29,1.29-2.21,1.56-3.51.01-7.03-.04-10.54-.15-.48-5.43-.2-14.55-.22-20.22-.09-13.22-.03-26.43.18-39.64,4.78-.21,8.2-.2,12.98.03.57,7.42.36,16.4.34,23.96l20.57.03c.07-5.3-.54-18.92.28-23.37,1.19-1.04,1.08-.71,3.04-.91h0Z"/>
  <path class="st0" d="M600.99,671.24c6.8,0,13.61.1,20.42.31.06,1.42.62,9.95-.6,10.64-5.5,3.09-21.52-1.58-25.9,2.59-1.79,3.72-1.27,7.07-1.12,11.22,7.73-.05,15.47-.02,23.2.11.23,3.77.11,6.55-.04,10.34-7.08.54-15.72.47-22.94.58-.23,7.61-1.85,12.8,7.52,13.07,6.65-.02,13.32.04,19.97.19.1,2.97.66,7.35-.72,9.76-3.04,2.57-22.47,1.41-27.41,1.23-16.2-.8-12.79-23.96-12.94-35.22-.24-19.18,1.72-24.33,20.58-24.83h-.02Z"/>
  <path class="st0" d="M482.26,671.24c7.89-.04,15.79.03,23.67.2.09,4.32.08,7.12-.29,11.4-5.88.4-22.61-.78-26.67,1.59-1.8,3.32-1.25,7.67-1.17,11.54l23.46.08c.21,4.18.18,6.24-.15,10.41-6.31.69-16.2.24-23.08.41-.12,5.22-1.54,11.45,4.35,13.25,7.73.18,15.47.24,23.2.19.28,3.12,1.19,7.41-.44,9.89-.79.61-2.17,1.36-3.17,1.29-16.26-1.17-37.2,6.41-37.14-18.03-.16-5.83-.52-11.73-.28-17.57.66-15.4-.26-23.85,17.71-24.64h0Z"/>
  <path class="st0" d="M260.12,671.59c7.86-.54,18.73-.15,26.82-.05.07,2.03.6,9.21-.71,10.42-5.44,5.56-31.58-5.98-27.48,9.65,2.08,7.92,27.83.39,29.66,14.83,1.7,13.39,1.58,21.98-13.57,24.93-6.8.59-20.52.4-27.27-.18-.17-3.54-.06-7.07,0-10.62,6.59-.77,13.59.16,20.14.03,11.75-.23,13.23-13.08-.28-13.14-16.53-.08-23.85-5.22-20.89-22.4,1.51-8.76,4.69-11.65,13.57-13.47h.01Z"/>
  <path class="st0" d="M553.62,671.22c6.61-.07,13.23.05,19.84.33.52,4.17.42,7.2-.05,11.32-6.42.64-15.65-.18-22.32.67-1,.13-2.35,1.59-2.89,2.51-3.23,5.59-2.17,22.67-.99,28.34,2.14,10.24,19.23,3.01,25.75,6.04.62.29.67,1.77.84,2.68.1,3.03-.13,4.99-.43,7.96-16.78,1.84-40.39,3.1-40.19-20.51.16-18.43-4.4-37.74,20.43-39.33h0Z"/>
  <path class="st0" d="M680.42,671.59c12.65-.59,32.45-.61,45.05-.09.63,15.11-2.16,11.49-15.99,11.8-.12,10.65.04,21.57.08,32.24.05,5.18.02,10.37-.08,15.55-4.15.42-8.68.39-12.85.11-.71-15.59.23-32.04-.53-47.87-5.4-.13-10.15.12-15.68-.27-.42-3.45-1-8.17,0-11.48h0Z"/>
</svg>