<?xml version="1.0" encoding="UTF-8"?>
<svg id="Layer_1" xmlns="http://www.w3.org/2000/svg" version="1.1" viewBox="0 0 1024 1024">
  <!-- Generator: Adobe Illustrator 30.3.0, SVG Export Plug-In . SVG Version: 2.1.3 Build 182)  -->
  <defs>
    <style>
      .st0 {
        fill: #fff;
      }
    </style>
  </defs>
  <path class="st0" d="M639.9,437.52c70.31-.74,124.45,6.41,173.13,63.57,30.04,34.8,44.79,80.2,40.95,126.01-6.82,83.61-59.51,118.21-113.89,172.35-21.13,21.04-43.47,44.38-66.01,63.64-9.28.46-19.58.5-28.91.39-64.94-.87-131.12,1.93-195.93-.46-16.39-11.98-47.14-47.62-65.61-63.22-57.33-1.13-115.06-.11-172.39-.07-15.17-.3-28.54-9.35-22.91-26.17,5.91-17.69,27.32-11.93,41.79-12.91,6.93-.48,15.37,0,22.39,0l148.51-.26c16.13-.17,47.45,3.09,61.42-3.63,12.28-5.91,5.19-27.93-7.72-28.32-34.54-1.02-69.42.3-104.04-.63-15.41-9.54-32.47-29.75-47.29-42.06-9.06-.5-18.8-.48-27.93-.61-50.62.7-102.11.22-152.75-.59-7.67-.89-14.15-9.54-14.5-16.52-1.35-27.82,38.19-21.39,57.36-21.41h70.81c63.75-.04,132.73-1.39,196.11.3,24.69,21.63,48.38,48.71,73.55,69.55,39.12.74,80.09.15,119.36.2,7.98-7.04,23.06-22.71,31.21-30.82,13.17-13.08,37.77-34.88,48.16-48.75.15-12.21,4.82-50.08-10.32-51.27-17.32-1.37-39.1-.35-56.94-.43l-129.86-.2c-30.54,0-61.31.67-91.76-1.41-75.11-5.11-142.25-70.09-149.44-145.07,10.74-1.17,31.12-.67,42.36-.67l74.2-.07,256.9-.52v.04h0Z"/>
  <path class="st0" d="M435.55,161.04c26.78-.72,56.14-.17,83.07-.22l143.42.13,128.34,127.17c19.93,19.78,40.14,39.14,59.72,59.29,9.48,9.76.91,29.97-9.89,30.93-17.6,1.56-37.03.87-54.83.85-34.73.15-69.44.02-104.17-.33-10.65-9.13-22.73-21.49-32.97-31.49-11.74-11.52-28.6-28.97-41.08-38.75-39.21-.67-79.61-.22-118.86,0-7.76,5.87-19.93,18.15-27.12,25.08-15.56,15.11-31.19,30.15-46.9,45.1-16.32.83-37.17.3-53.77.35-30.99.15-61.99.13-92.98-.04,2.67-63.18,48.1-101.82,90.13-142.21,26.06-25.04,51.4-51.23,77.85-75.85h.04,0Z"/>
  <path class="st0" d="M842.31,160.94c34.25-6.02,66.88,17.04,72.63,51.34,5.76,34.32-17.5,66.75-51.86,72.27-34.01,5.46-66.05-17.52-71.77-51.49-5.69-33.97,17.06-66.16,50.99-72.11Z"/>
</svg>